<svg xmlns="http://www.w3.org/2000/svg" xmlns:xlink="http://www.w3.org/1999/xlink" width="200" zoomAndPan="magnify" viewBox="0 0 150 149.999998" height="200" preserveAspectRatio="xMidYMid meet" version="1.0"><defs><g/><clipPath id="21a9cf0d3c"><path d="M 75 0 C 33.578125 0 0 33.578125 0 75 C 0 116.421875 33.578125 150 75 150 C 116.421875 150 150 116.421875 150 75 C 150 33.578125 116.421875 0 75 0 " clip-rule="nonzero"/></clipPath></defs><g clip-path="url(#21a9cf0d3c)"><rect x="-15" width="180" fill="#242424" y="-15" height="179.999997" fill-opacity="1"/></g><g fill="#ffffff" fill-opacity="0.4"><g transform="translate(23.955749, 114.790993)"><g><path d="M 5.867188 0 L 19.445312 0 L 19.445312 -21.960938 L 29.585938 -21.960938 C 42.660156 -21.960938 53.347656 -32.183594 53.347656 -44.714844 C 53.347656 -57.289062 42.660156 -67.554688 29.585938 -67.554688 L 5.867188 -67.554688 Z M 29.585938 -35.371094 L 19.445312 -35.410156 L 19.445312 -54.101562 L 29.585938 -54.101562 C 35.203125 -54.101562 39.769531 -49.953125 39.769531 -44.839844 C 39.769531 -39.601562 35.203125 -35.328125 29.585938 -35.371094 Z M 29.585938 -35.371094 "/></g></g></g><g fill="#ffffff" fill-opacity="0.4"><g transform="translate(79.063186, 114.790993)"><g><path d="M 3.519531 0 L 51.042969 0 L 51.042969 -13.496094 L 25.019531 -13.496094 L 51.042969 -67.554688 L 3.519531 -67.554688 L 3.519531 -54.101562 L 29.542969 -54.101562 Z M 3.519531 0 "/></g></g></g><g fill="#ffffff" fill-opacity="1"><g transform="translate(20.162589, 110.997833)"><g><path d="M 5.867188 0 L 19.445312 0 L 19.445312 -21.960938 L 29.585938 -21.960938 C 42.660156 -21.960938 53.347656 -32.183594 53.347656 -44.714844 C 53.347656 -57.289062 42.660156 -67.554688 29.585938 -67.554688 L 5.867188 -67.554688 Z M 29.585938 -35.371094 L 19.445312 -35.410156 L 19.445312 -54.101562 L 29.585938 -54.101562 C 35.203125 -54.101562 39.769531 -49.953125 39.769531 -44.839844 C 39.769531 -39.601562 35.203125 -35.328125 29.585938 -35.371094 Z M 29.585938 -35.371094 "/></g></g></g><g fill="#ffffff" fill-opacity="1"><g transform="translate(75.270026, 110.997833)"><g><path d="M 3.519531 0 L 51.042969 0 L 51.042969 -13.496094 L 25.019531 -13.496094 L 51.042969 -67.554688 L 3.519531 -67.554688 L 3.519531 -54.101562 L 29.542969 -54.101562 Z M 3.519531 0 "/></g></g></g></svg>