<svg xmlns="http://www.w3.org/2000/svg" xmlns:xlink="http://www.w3.org/1999/xlink" width="200" zoomAndPan="magnify" viewBox="0 0 150 149.999998" height="200" preserveAspectRatio="xMidYMid meet" version="1.0"><defs><clipPath id="d535d74404"><path d="M 8.726562 0 L 141.476562 0 L 141.476562 150 L 8.726562 150 Z M 8.726562 0 " clip-rule="nonzero"/></clipPath><clipPath id="2751a09659"><path d="M 75 37 L 141.476562 37 L 141.476562 113 L 75 113 Z M 75 37 " clip-rule="nonzero"/></clipPath></defs><g clip-path="url(#d535d74404)"><path fill="#5c8dbc" d="M 141.273438 44.425781 C 141.273438 41.929688 140.734375 39.722656 139.652344 37.828125 C 138.589844 35.964844 137 34.40625 134.867188 33.171875 C 117.242188 23.027344 99.609375 12.914062 81.988281 2.757812 C 77.242188 0.0195312 72.636719 0.121094 67.925781 2.898438 C 60.914062 7.027344 25.792969 27.113281 15.328125 33.164062 C 11.019531 35.65625 8.925781 39.46875 8.921875 44.421875 C 8.917969 64.824219 8.921875 85.222656 8.917969 105.625 C 8.917969 108.066406 9.429688 110.226562 10.464844 112.09375 C 11.527344 114.011719 13.140625 115.621094 15.324219 116.882812 C 25.789062 122.933594 60.90625 143.015625 67.921875 147.144531 C 72.640625 149.929688 77.242188 150.027344 81.992188 147.285156 C 99.609375 137.128906 117.25 127.015625 134.875 116.878906 C 137.058594 115.617188 138.667969 114.007812 139.738281 112.089844 C 140.765625 110.226562 141.28125 108.0625 141.28125 105.617188 C 141.28125 105.617188 141.28125 64.828125 141.273438 44.425781 " fill-opacity="1" fill-rule="nonzero"/></g><path fill="#1a4674" d="M 75.300781 74.824219 L 10.464844 112.09375 C 11.527344 114.011719 13.140625 115.621094 15.324219 116.882812 C 25.789062 122.933594 60.90625 143.015625 67.921875 147.144531 C 72.640625 149.925781 77.242188 150.027344 81.992188 147.285156 C 99.609375 137.128906 117.25 127.015625 134.875 116.878906 C 137.058594 115.617188 138.667969 114.007812 139.738281 112.089844 L 75.300781 74.824219 " fill-opacity="1" fill-rule="nonzero"/><path fill="#1a4674" d="M 56.097656 85.863281 C 59.871094 92.441406 66.960938 96.878906 75.097656 96.878906 C 83.285156 96.878906 90.417969 92.382812 94.171875 85.738281 L 75.300781 74.824219 L 56.097656 85.863281 " fill-opacity="1" fill-rule="nonzero"/><g clip-path="url(#2751a09659)"><path fill="#1b598e" d="M 141.273438 44.425781 C 141.273438 41.929688 140.734375 39.722656 139.652344 37.828125 L 75.300781 74.824219 L 139.734375 112.089844 C 140.765625 110.226562 141.277344 108.0625 141.277344 105.617188 C 141.277344 105.617188 141.277344 64.828125 141.273438 44.425781 " fill-opacity="1" fill-rule="nonzero"/></g><path fill="#ffffff" d="M 137.730469 77.488281 L 132.695312 77.488281 L 132.695312 82.511719 L 127.65625 82.511719 L 127.65625 77.488281 L 122.625 77.488281 L 122.625 72.460938 L 127.65625 72.460938 L 127.65625 67.433594 L 132.695312 67.433594 L 132.695312 72.460938 L 137.730469 72.460938 L 137.730469 77.488281 " fill-opacity="1" fill-rule="nonzero"/><path fill="#ffffff" d="M 119.355469 77.488281 L 114.320312 77.488281 L 114.320312 82.511719 L 109.289062 82.511719 L 109.289062 77.488281 L 104.253906 77.488281 L 104.253906 72.460938 L 109.289062 72.460938 L 109.289062 67.433594 L 114.320312 67.433594 L 114.320312 72.460938 L 119.355469 72.460938 L 119.355469 77.488281 " fill-opacity="1" fill-rule="nonzero"/><path fill="#ffffff" d="M 94.171875 85.738281 C 90.417969 92.382812 83.285156 96.878906 75.097656 96.878906 C 66.960938 96.878906 59.871094 92.441406 56.097656 85.863281 C 54.261719 82.667969 53.210938 78.972656 53.210938 75.019531 C 53.210938 62.953125 63.007812 53.167969 75.097656 53.167969 C 83.179688 53.167969 90.234375 57.550781 94.027344 64.058594 L 113.15625 53.0625 C 105.554688 39.953125 91.359375 31.136719 75.097656 31.136719 C 50.820312 31.136719 31.140625 50.785156 31.140625 75.019531 C 31.140625 82.972656 33.261719 90.429688 36.964844 96.863281 C 44.546875 110.035156 58.785156 118.910156 75.097656 118.910156 C 91.441406 118.910156 105.699219 110 113.269531 96.789062 L 94.171875 85.738281 " fill-opacity="1" fill-rule="nonzero"/></svg>