<svg xmlns="http://www.w3.org/2000/svg" xmlns:xlink="http://www.w3.org/1999/xlink" width="200" zoomAndPan="magnify" viewBox="0 0 150 149.999998" height="200" preserveAspectRatio="xMidYMid meet" version="1.0"><defs><clipPath id="03553f7ea9"><path d="M 7.875 0 L 142.125 0 L 142.125 150 L 7.875 150 Z M 7.875 0 " clip-rule="nonzero"/></clipPath></defs><g clip-path="url(#03553f7ea9)"><path fill="#0277bd" d="M 142.105469 0 L 7.894531 0 L 19.738281 134.210938 L 75 150 L 130.261719 134.210938 Z M 142.105469 0 " fill-opacity="1" fill-rule="nonzero"/></g><path fill="#039be5" d="M 75 11.84375 L 75 137.761719 L 119.210938 125.132812 L 129.078125 11.84375 Z M 75 11.84375 " fill-opacity="1" fill-rule="nonzero"/><path fill="#ffffff" d="M 110.921875 31.578125 L 75 31.578125 L 75 47.367188 L 94.34375 47.367188 L 93.15625 63.15625 L 75 63.15625 L 75 78.949219 L 92.367188 78.949219 L 91.183594 96.710938 L 75 102.238281 L 75 118.816406 L 106.183594 108.550781 L 108.949219 63.15625 Z M 110.921875 31.578125 " fill-opacity="1" fill-rule="nonzero"/><path fill="#eeeeee" d="M 75 31.578125 L 75 47.367188 L 39.867188 47.367188 L 38.683594 31.578125 Z M 56.84375 63.15625 L 57.632812 78.949219 L 75 78.949219 L 75 63.15625 Z M 58.421875 86.84375 L 42.632812 86.84375 L 43.816406 108.550781 L 75 118.816406 L 75 102.238281 L 58.816406 96.710938 Z M 58.421875 86.84375 " fill-opacity="1" fill-rule="nonzero"/></svg>