<svg xmlns="http://www.w3.org/2000/svg" xmlns:xlink="http://www.w3.org/1999/xlink" width="200" zoomAndPan="magnify" viewBox="0 0 150 149.999998" height="200" preserveAspectRatio="xMidYMid meet" version="1.0"><path fill="#242424" d="M 74.816406 71.382812 L 111.085938 48.765625 C 110.691406 48.703125 110.292969 48.664062 109.882812 48.664062 L 39.75 48.664062 C 39.339844 48.664062 38.9375 48.703125 38.546875 48.765625 Z M 74.816406 71.382812 " fill-opacity="1" fill-rule="nonzero"/><path fill="#242424" d="M 77.097656 80.128906 C 77.050781 80.15625 76.996094 80.179688 76.945312 80.207031 C 76.894531 80.234375 76.835938 80.265625 76.785156 80.289062 C 76.5 80.4375 76.207031 80.554688 75.90625 80.632812 C 75.875 80.640625 75.84375 80.644531 75.816406 80.652344 C 75.484375 80.730469 75.152344 80.78125 74.820312 80.78125 C 74.816406 80.78125 74.816406 80.78125 74.816406 80.78125 C 74.8125 80.78125 74.8125 80.78125 74.8125 80.78125 C 74.480469 80.78125 74.144531 80.734375 73.816406 80.652344 C 73.785156 80.644531 73.753906 80.640625 73.722656 80.632812 C 73.425781 80.554688 73.132812 80.4375 72.847656 80.289062 C 72.792969 80.265625 72.738281 80.234375 72.683594 80.207031 C 72.636719 80.179688 72.582031 80.15625 72.53125 80.128906 L 32.230469 54.996094 C 32.15625 55.421875 32.109375 55.855469 32.109375 56.300781 L 32.109375 96.632812 C 32.109375 100.847656 35.527344 104.269531 39.75 104.269531 L 109.878906 104.269531 C 114.097656 104.269531 117.519531 100.847656 117.519531 96.632812 L 117.519531 56.300781 C 117.519531 55.855469 117.472656 55.421875 117.398438 54.996094 Z M 77.097656 80.128906 " fill-opacity="1" fill-rule="nonzero"/><path fill="#242424" d="M 75.015625 149.957031 C 33.675781 149.957031 0.0390625 116.320312 0.0390625 74.976562 C 0.0390625 33.632812 33.675781 -0.00390625 75.015625 -0.00390625 C 116.363281 -0.00390625 150 33.632812 150 74.976562 C 150 116.320312 116.363281 149.957031 75.015625 149.957031 Z M 75.015625 7.390625 C 37.75 7.390625 7.433594 37.710938 7.433594 74.976562 C 7.433594 112.242188 37.75 142.5625 75.015625 142.5625 C 112.285156 142.5625 142.605469 112.242188 142.605469 74.976562 C 142.605469 37.710938 112.285156 7.390625 75.015625 7.390625 Z M 75.015625 7.390625 " fill-opacity="1" fill-rule="nonzero"/></svg>