<svg xmlns="http://www.w3.org/2000/svg" xmlns:xlink="http://www.w3.org/1999/xlink" width="200" zoomAndPan="magnify" viewBox="0 0 150 149.999998" height="200" preserveAspectRatio="xMidYMid meet" version="1.0"><defs><clipPath id="c53e970320"><path d="M 0 10.6875 L 150 10.6875 L 150 139.6875 L 0 139.6875 Z M 0 10.6875 " clip-rule="nonzero"/></clipPath></defs><g clip-path="url(#c53e970320)"><path fill="#4b32c3" d="M 149.101562 78.949219 L 115.058594 136.527344 C 114.425781 137.535156 113.539062 138.351562 112.484375 138.902344 C 111.433594 139.453125 110.257812 139.714844 109.070312 139.660156 L 40.964844 139.660156 C 39.777344 139.707031 38.597656 139.4375 37.546875 138.882812 C 36.496094 138.324219 35.609375 137.5 34.976562 136.492188 L 0.925781 79.003906 C 0.320312 77.964844 0 76.785156 0 75.585938 C 0 74.382812 0.320312 73.203125 0.925781 72.167969 L 34.964844 14.347656 C 35.574219 13.277344 36.445312 12.382812 37.496094 11.75 C 38.546875 11.113281 39.738281 10.757812 40.964844 10.714844 L 109.050781 10.714844 C 110.273438 10.761719 111.46875 11.117188 112.515625 11.757812 C 113.5625 12.394531 114.433594 13.289062 115.039062 14.355469 L 149.078125 72.308594 C 149.679688 73.3125 150 74.460938 150 75.632812 C 150 76.804688 149.679688 77.957031 149.078125 78.960938 Z M 120.910156 101.515625 L 120.910156 49.859375 L 75 23.964844 L 29.140625 49.859375 L 29.140625 101.515625 L 75 127.40625 Z M 120.910156 101.515625 " fill-opacity="1" fill-rule="nonzero"/></g><path fill="#8080f2" d="M 106.082031 92.316406 L 75.292969 109.695312 L 44.535156 92.316406 L 44.535156 57.554688 L 75.292969 40.167969 L 106.082031 57.554688 Z M 106.082031 92.316406 " fill-opacity="1" fill-rule="nonzero"/></svg>