<svg xmlns="http://www.w3.org/2000/svg" xmlns:xlink="http://www.w3.org/1999/xlink" width="200" zoomAndPan="magnify" viewBox="0 0 150 149.999998" height="200" preserveAspectRatio="xMidYMid meet" version="1.0"><path fill="#242424" d="M 75 0 C 33.578125 0 0 33.578125 0 75 C 0 116.421875 33.578125 150 75 150 C 116.421875 150 150 116.421875 150 75 C 150 33.578125 116.421875 0 75 0 Z M 89.324219 119.203125 C 87.03125 119.648438 86.210938 118.238281 86.210938 117.023438 C 86.210938 115.53125 86.273438 110.640625 86.273438 104.566406 C 86.273438 100.328125 84.824219 97.558594 83.203125 96.15625 C 93.277344 95.03125 103.859375 91.191406 103.859375 73.746094 C 103.859375 68.789062 102.113281 64.734375 99.210938 61.558594 C 99.675781 60.414062 101.226562 55.792969 98.761719 49.546875 C 98.761719 49.546875 94.972656 48.324219 86.332031 54.203125 C 82.71875 53.199219 78.847656 52.695312 75.007812 52.671875 C 71.160156 52.695312 67.289062 53.199219 63.683594 54.203125 C 55.042969 48.328125 51.246094 49.546875 51.246094 49.546875 C 48.789062 55.800781 50.339844 60.414062 50.804688 61.558594 C 47.910156 64.734375 46.148438 68.789062 46.148438 73.746094 C 46.148438 91.148438 56.707031 95.039062 66.75 96.1875 C 65.460938 97.320312 64.289062 99.324219 63.878906 102.253906 C 61.296875 103.417969 54.75 105.421875 50.714844 98.484375 C 50.714844 98.484375 48.328125 94.125 43.792969 93.800781 C 43.792969 93.800781 39.375 93.742188 43.484375 96.5625 C 43.484375 96.5625 46.449219 97.957031 48.503906 103.207031 C 48.503906 103.207031 51.15625 112.042969 63.742188 109.296875 C 63.765625 113.085938 63.800781 115.941406 63.800781 117.023438 C 63.800781 118.222656 62.976562 119.625 60.710938 119.210938 C 42.734375 113.203125 29.773438 96.1875 29.773438 76.125 C 29.773438 51.039062 50.023438 30.710938 75.007812 30.710938 C 99.988281 30.710938 120.238281 51.046875 120.238281 76.125 C 120.238281 96.179688 107.296875 113.191406 89.332031 119.203125 Z M 89.324219 119.203125 " fill-opacity="1" fill-rule="nonzero"/></svg>