<svg xmlns="http://www.w3.org/2000/svg" xmlns:xlink="http://www.w3.org/1999/xlink" width="200" zoomAndPan="magnify" viewBox="0 0 150 149.999998" height="200" preserveAspectRatio="xMidYMid meet" version="1.0"><defs><clipPath id="10ea675ed0"><path d="M 1 2.8125 L 150 2.8125 L 150 149 L 1 149 Z M 1 2.8125 " clip-rule="nonzero"/></clipPath></defs><rect x="-15" width="180" fill="#ffffff" y="-15" height="179.999997" fill-opacity="1"/><rect x="-15" width="180" fill="#ffffff" y="-15" height="179.999997" fill-opacity="1"/><g clip-path="url(#10ea675ed0)"><path fill="#242424" d="M 76.660156 65.625 C 94.464844 51.085938 109.652344 34.691406 125.566406 19.058594 L 125.347656 18.390625 C 124.609375 18.277344 123.867188 18.03125 123.140625 18.066406 C 121.757812 18.128906 121.433594 17.320312 121.898438 16.371094 C 122.296875 15.566406 123.160156 14.96875 123.898438 14.386719 C 123.953125 14.34375 124.613281 15.199219 125.078125 15.5 C 125.519531 15.78125 126.40625 16.15625 126.519531 16.015625 C 127.070312 15.355469 127.484375 14.546875 127.765625 13.734375 C 127.804688 13.628906 126.789062 13.089844 126.21875 12.871094 C 125.578125 12.628906 124.886719 12.515625 124.222656 12.347656 C 124.550781 11.40625 124.679688 10.304688 125.273438 9.582031 C 125.859375 8.875 126.902344 8.351562 127.460938 9.910156 C 127.664062 10.476562 127.988281 11 128.300781 11.523438 L 129.496094 11.539062 C 130.039062 10.691406 130.585938 9.84375 131.433594 8.519531 C 129.980469 8.109375 128.746094 7.84375 127.59375 7.386719 C 127.1875 7.226562 126.621094 6.375 126.726562 6.191406 C 127.375 5.070312 128.199219 4.042969 128.960938 2.988281 C 129.421875 3.347656 129.988281 3.625 130.3125 4.082031 C 130.867188 4.867188 131.269531 5.761719 131.78125 6.695312 C 136.152344 3.007812 141.371094 2.867188 145.015625 6.019531 C 148.503906 9.039062 148.972656 15.128906 146.007812 19.660156 C 146.679688 20.597656 146.855469 22.1875 148.753906 21.472656 C 149.019531 21.375 149.664062 21.738281 149.816406 22.042969 C 149.976562 22.359375 149.894531 23.039062 149.652344 23.261719 C 148.753906 24.078125 147.796875 24.886719 146.726562 25.445312 C 146.449219 25.589844 145.441406 24.941406 145.210938 24.453125 C 144.683594 23.34375 144.4375 22.101562 143.976562 20.59375 C 142.945312 21.246094 142.28125 21.671875 141.476562 22.183594 C 142.578125 23.382812 142.28125 25.425781 144.414062 25.585938 C 144.578125 25.597656 144.945312 26.769531 144.75 26.988281 C 143.679688 28.199219 142.828125 29.976562 140.78125 29.160156 C 140.109375 29.9375 139.625 30.773438 138.898438 31.25 C 138.476562 31.527344 137.953125 31.652344 137.421875 31.761719 C 136.9375 31.863281 136.488281 31.492188 136.488281 31 L 136.542969 29.777344 C 136.683594 29.621094 136.742188 29.585938 136.871094 29.578125 L 134.878906 26.5625 C 133.429688 27.886719 132.035156 29.078125 130.730469 30.359375 C 116.421875 44.488281 102.136719 58.648438 87.796875 72.742188 C 86.933594 73.589844 86.773438 74.925781 87.425781 75.945312 C 91.078125 81.621094 92.878906 87.796875 91.734375 94.613281 C 90.886719 99.675781 87.761719 102.929688 83.367188 105.136719 C 81.054688 106.300781 78.636719 107.25 76.292969 108.351562 C 72.695312 110.039062 70.746094 112.957031 70.289062 116.832031 C 69.917969 119.984375 69.902344 123.183594 69.410156 126.316406 C 67.003906 141.734375 52.683594 149.71875 39.21875 148.230469 C 28.582031 147.054688 20.457031 141.355469 13.808594 133.394531 C 10.628906 129.589844 7.265625 125.726562 5.105469 121.347656 C 0.394531 111.8125 -0.015625 101.796875 5.558594 92.46875 C 9.644531 85.628906 16.375 81.769531 24.117188 80.011719 C 28.15625 79.09375 32.304688 78.621094 36.425781 78.117188 C 39.457031 77.742188 41.617188 76.371094 43.011719 73.640625 C 44.09375 71.527344 45.382812 69.523438 46.523438 67.441406 C 51.605469 58.207031 64.875 54.203125 75.394531 63.917969 C 75.863281 64.347656 76.164062 64.960938 76.644531 65.628906 Z M 74.191406 67.777344 C 67.453125 59.175781 54.746094 59.921875 49.640625 68.9375 C 48.75 70.511719 48.050781 72.195312 47.175781 73.789062 C 44.78125 78.148438 41.511719 81.074219 36.203125 81.671875 C 31.136719 82.238281 26.007812 83.054688 21.152344 84.558594 C 14.867188 86.503906 9.757812 90.65625 7.246094 96.742188 C 4.054688 104.457031 4.269531 112.328125 8.460938 119.941406 C 11.496094 125.460938 15.296875 130.347656 19.71875 134.757812 C 25.136719 140.167969 31.550781 143.878906 39.277344 144.796875 C 51.023438 146.191406 63.4375 139.714844 65.863281 126.746094 C 66.410156 123.824219 66.5625 120.824219 66.761719 117.851562 C 67.175781 111.625 70.15625 107.257812 75.910156 104.761719 C 78.40625 103.675781 80.875 102.527344 83.304688 101.3125 C 86.019531 99.960938 87.722656 97.777344 88.351562 94.78125 C 89.644531 88.636719 87.988281 83.121094 84.820312 77.902344 C 84.121094 76.746094 83.410156 76.734375 82.53125 77.59375 C 80.484375 79.589844 78.429688 81.574219 76.441406 83.628906 C 76.113281 83.960938 75.929688 84.675781 76.023438 85.140625 C 77.238281 90.9375 75.347656 95.59375 70.890625 99.320312 C 66.367188 103.101562 59.582031 103.761719 54.421875 100.960938 C 49.445312 98.265625 46.710938 93.09375 47.308594 87.519531 C 48.152344 79.660156 55.65625 74.046875 64.136719 74.898438 C 64.867188 74.972656 65.859375 75.066406 66.328125 74.679688 C 69.019531 72.457031 71.589844 70.09375 74.191406 67.785156 Z M 50.53125 89.351562 C 50.195312 94.636719 56.164062 99.921875 61.378906 99.527344 C 67.710938 99.046875 73.011719 95.1875 72.972656 88.515625 C 72.941406 82.09375 68.710938 78.359375 62.050781 78.050781 C 55.863281 77.761719 50.585938 83.179688 50.53125 89.351562 Z M 145.226562 13.421875 C 144.714844 11.984375 144.410156 10.414062 143.640625 9.125 C 141.691406 5.851562 136.316406 6.03125 134.445312 9.269531 C 132.988281 11.792969 131.453125 14.269531 129.859375 16.707031 C 127.828125 19.808594 127.871094 19.648438 130.753906 22.21875 C 131.121094 22.550781 131.457031 22.914062 131.800781 23.273438 C 132.488281 23.996094 133.136719 23.960938 134.019531 23.339844 C 136.828125 21.359375 139.609375 19.3125 142.585938 17.605469 C 144.320312 16.609375 144.902344 15.320312 145.226562 13.417969 Z M 120.402344 29.496094 C 118.160156 31.527344 116.179688 33.320312 114.070312 35.226562 C 115.339844 36.347656 116.566406 37.429688 117.789062 38.511719 C 119.945312 36.484375 121.890625 34.664062 123.957031 32.726562 C 122.539062 31.441406 121.320312 30.332031 120.402344 29.5 Z M 79.238281 76.007812 C 80.949219 74.421875 82.597656 72.890625 84.25 71.355469 C 82.664062 69.894531 81.214844 68.558594 79.613281 67.089844 C 77.886719 68.710938 76.261719 70.234375 74.484375 71.902344 C 76.175781 73.363281 77.675781 74.65625 79.234375 76.007812 Z M 110.683594 45.292969 C 112.71875 43.308594 114.503906 41.570312 116.367188 39.761719 C 115.1875 38.664062 114.023438 37.582031 113.226562 36.847656 C 111.207031 38.6875 109.289062 40.429688 107.308594 42.230469 C 108.453125 43.273438 109.589844 44.296875 110.683594 45.292969 Z M 81.152344 65.980469 L 85.402344 69.792969 C 87.128906 68.355469 88.707031 67.046875 90.453125 65.597656 C 88.976562 64.269531 87.75 63.160156 86.378906 61.917969 C 84.808594 63.140625 83.109375 64.464844 81.15625 65.980469 Z M 106.214844 43.597656 C 104.320312 45.34375 102.550781 46.976562 100.691406 48.691406 C 102.007812 49.796875 103.234375 50.824219 104.136719 51.582031 C 105.964844 49.871094 107.726562 48.226562 109.476562 46.582031 C 108.308594 45.515625 107.175781 44.476562 106.214844 43.597656 Z M 93.144531 55.730469 C 91.425781 57.332031 89.742188 58.894531 87.847656 60.65625 C 89.167969 61.894531 90.359375 63.007812 91.621094 64.183594 C 93.328125 62.359375 94.980469 60.585938 96.707031 58.746094 C 95.660156 57.855469 94.449219 56.835938 93.144531 55.730469 Z M 124.8125 31.03125 C 126.648438 29.351562 128.4375 27.722656 130.324219 25.996094 C 129.339844 25.09375 128.449219 24.140625 127.414062 23.398438 C 127.058594 23.140625 126.167969 23.195312 125.804688 23.472656 C 124.222656 24.675781 122.742188 26.015625 121.109375 27.410156 C 122.800781 29.0625 123.941406 30.175781 124.8125 31.027344 Z M 98.246094 57.789062 C 99.996094 56.128906 101.511719 54.683594 103.195312 53.085938 C 101.832031 51.929688 100.625 50.902344 99.308594 49.78125 C 97.738281 51.457031 96.261719 53.023438 94.675781 54.714844 C 95.796875 55.679688 96.960938 56.679688 98.246094 57.789062 Z M 69.492188 76.40625 C 71.238281 78.070312 72.761719 79.515625 74.09375 80.78125 C 75.40625 79.652344 76.65625 78.578125 78.03125 77.402344 C 76.289062 75.875 74.765625 74.546875 73.164062 73.148438 C 71.894531 74.277344 70.699219 75.332031 69.492188 76.40625 Z M 139.195312 23.320312 C 138.464844 24.226562 137.335938 25.121094 137.492188 25.519531 C 138.003906 26.828125 138.164062 28.863281 140.421875 28.34375 C 141.949219 26.34375 140.152344 25.222656 139.195312 23.316406 Z M 139.195312 23.320312 " fill-opacity="1" fill-rule="nonzero"/></g><path fill="#242424" d="M 50.507812 115.230469 C 50.898438 115.882812 50.828125 116.738281 50.28125 117.265625 C 50.164062 117.378906 50.046875 117.460938 49.914062 117.5 C 49.375 117.648438 48.574219 117.546875 48.136719 117.226562 C 46.945312 116.351562 45.84375 115.347656 44.789062 114.3125 C 41.183594 110.769531 37.617188 107.191406 34.035156 103.625 C 33.898438 103.488281 33.199219 102.636719 33.164062 102.476562 C 32.992188 101.617188 32.929688 101.203125 33.285156 100.667969 C 34 99.601562 35.105469 100.0625 35.9375 100.882812 C 38.566406 103.472656 41.175781 106.089844 43.828125 108.65625 C 45.820312 110.585938 47.882812 112.433594 49.867188 114.371094 C 50.117188 114.609375 50.3125 114.910156 50.507812 115.234375 Z M 50.507812 115.230469 " fill-opacity="1" fill-rule="nonzero"/><path fill="#242424" d="M 142.015625 12.984375 C 141.183594 15.226562 136.222656 19.976562 133.773438 20.832031 C 133.53125 20.917969 133.316406 20.640625 133.464844 20.429688 C 135.574219 17.367188 138.335938 14.929688 141.613281 12.679688 C 141.824219 12.53125 142.109375 12.742188 142.015625 12.984375 Z M 142.015625 12.984375 " fill-opacity="1" fill-rule="nonzero"/><path fill="#242424" d="M 138.277344 9.6875 C 137.542969 12.070312 134.328125 16.5625 132.136719 18.320312 C 131.847656 18.554688 131.441406 18.226562 131.59375 17.890625 C 133.042969 14.753906 135.203125 12.078125 137.667969 9.355469 C 137.921875 9.074219 138.382812 9.332031 138.273438 9.691406 Z M 138.277344 9.6875 " fill-opacity="1" fill-rule="nonzero"/></svg>