<svg xmlns="http://www.w3.org/2000/svg" xmlns:xlink="http://www.w3.org/1999/xlink" width="200" zoomAndPan="magnify" viewBox="0 0 150 149.999998" height="200" preserveAspectRatio="xMidYMid meet" version="1.0"><defs><clipPath id="6b07bca248"><path d="M 9.375 0 L 140.625 0 L 140.625 150 L 9.375 150 Z M 9.375 0 " clip-rule="nonzero"/></clipPath></defs><g clip-path="url(#6b07bca248)"><path fill="#e44d26" d="M 21.289062 134.582031 L 9.335938 0.535156 L 140.664062 0.535156 L 128.699219 134.566406 L 74.917969 149.46875 Z M 21.289062 134.582031 " fill-opacity="1" fill-rule="nonzero"/></g><path fill="#f16529" d="M 118.457031 126.027344 L 128.683594 11.496094 L 75 11.496094 L 75 138.078125 Z M 118.457031 126.027344 " fill-opacity="1" fill-rule="nonzero"/><path fill="#ebebeb" d="M 74.945312 27.9375 L 33.773438 27.9375 L 38.207031 77.652344 L 75 77.652344 L 75 61.214844 L 53.246094 61.214844 L 51.742188 44.378906 L 75 44.378906 L 75 27.9375 Z M 75 103.855469 L 74.929688 103.875 L 56.621094 98.933594 L 55.457031 85.820312 L 38.945312 85.820312 L 41.246094 111.632812 L 74.925781 120.941406 L 75 120.917969 Z M 75 103.855469 " fill-opacity="1" fill-rule="nonzero"/><path fill="#ffffff" d="M 74.945312 77.652344 L 95.191406 77.652344 L 93.328125 98.96875 L 74.992188 103.917969 L 74.992188 121.019531 L 108.695312 111.679688 L 113.210938 61.203125 L 75 61.203125 Z M 115.734375 32.347656 L 116.125 27.9375 L 74.933594 27.9375 L 74.933594 44.375 L 114.644531 44.375 L 114.972656 40.679688 Z M 115.734375 32.347656 " fill-opacity="1" fill-rule="nonzero"/></svg>