<svg xmlns="http://www.w3.org/2000/svg" xmlns:xlink="http://www.w3.org/1999/xlink" width="200" zoomAndPan="magnify" viewBox="0 0 150 149.999998" height="200" preserveAspectRatio="xMidYMid meet" version="1.0"><path fill="#242424" d="M 88.785156 77.101562 C 88.785156 84.710938 82.613281 90.878906 75.007812 90.878906 C 67.402344 90.878906 61.222656 84.703125 61.222656 77.101562 C 61.222656 69.496094 67.394531 63.324219 75.007812 63.324219 C 82.621094 63.324219 88.785156 69.496094 88.785156 77.101562 Z M 108.660156 60.390625 C 108.863281 64.746094 108.898438 66.058594 108.898438 77.101562 C 108.898438 88.140625 108.855469 89.445312 108.660156 93.800781 C 108.480469 97.828125 107.804688 100.019531 107.234375 101.484375 C 106.484375 103.410156 105.59375 104.789062 104.144531 106.238281 C 102.699219 107.683594 101.316406 108.578125 99.390625 109.328125 C 97.933594 109.898438 95.746094 110.566406 91.710938 110.753906 C 87.351562 110.949219 86.039062 110.992188 75 110.992188 C 63.960938 110.992188 62.65625 110.949219 58.289062 110.753906 C 54.261719 110.566406 52.074219 109.898438 50.609375 109.328125 C 48.683594 108.578125 47.300781 107.683594 45.855469 106.238281 C 44.40625 104.789062 43.515625 103.410156 42.765625 101.484375 C 42.203125 100.027344 41.527344 97.835938 41.339844 93.800781 C 41.144531 89.445312 41.101562 88.132812 41.101562 77.101562 C 41.101562 66.066406 41.144531 64.753906 41.339844 60.390625 C 41.527344 56.363281 42.195312 54.171875 42.765625 52.710938 C 43.515625 50.78125 44.40625 49.402344 45.855469 47.953125 C 47.300781 46.507812 48.683594 45.613281 50.609375 44.863281 C 52.066406 44.300781 54.253906 43.628906 58.289062 43.441406 C 62.648438 43.238281 63.960938 43.199219 75 43.199219 C 86.039062 43.199219 87.34375 43.246094 91.710938 43.441406 C 95.738281 43.628906 97.925781 44.296875 99.390625 44.863281 C 101.316406 45.613281 102.699219 46.507812 104.144531 47.953125 C 105.59375 49.402344 106.484375 50.78125 107.234375 52.710938 C 107.804688 54.164062 108.472656 56.355469 108.660156 60.390625 Z M 96.238281 77.101562 C 96.238281 65.378906 86.738281 55.867188 75.007812 55.867188 C 63.277344 55.867188 53.773438 65.371094 53.773438 77.101562 C 53.773438 88.828125 63.277344 98.332031 75.007812 98.332031 C 86.738281 98.332031 96.238281 88.828125 96.238281 77.101562 Z M 102.039062 55.027344 C 102.039062 52.289062 99.816406 50.070312 97.074219 50.070312 C 94.328125 50.070312 92.113281 52.289062 92.113281 55.027344 C 92.113281 57.765625 94.335938 59.992188 97.074219 59.992188 C 99.808594 59.992188 102.039062 57.773438 102.039062 55.027344 Z M 150.007812 75 C 150.007812 116.421875 116.429688 150 75.007812 150 C 33.585938 150 0 116.421875 0 75 C 0 33.578125 33.578125 0 75 0 C 116.421875 0 150 33.578125 150 75 Z M 116.355469 77.101562 C 116.355469 65.871094 116.308594 64.460938 116.109375 60.050781 C 115.90625 55.648438 115.207031 52.648438 114.1875 50.015625 C 113.128906 47.300781 111.71875 44.992188 109.417969 42.699219 C 107.113281 40.402344 104.8125 38.984375 102.097656 37.925781 C 99.464844 36.90625 96.464844 36.210938 92.0625 36.007812 C 87.652344 35.804688 86.242188 35.761719 75.015625 35.761719 C 63.789062 35.761719 62.378906 35.804688 57.96875 36.007812 C 53.566406 36.210938 50.566406 36.90625 47.933594 37.925781 C 45.21875 38.984375 42.90625 40.394531 40.613281 42.699219 C 38.316406 44.992188 36.898438 47.300781 35.84375 50.015625 C 34.824219 52.648438 34.117188 55.648438 33.921875 60.050781 C 33.71875 64.460938 33.675781 65.871094 33.675781 77.101562 C 33.675781 88.328125 33.71875 89.738281 33.921875 94.148438 C 34.125 98.550781 34.824219 101.550781 35.84375 104.183594 C 36.898438 106.898438 38.308594 109.207031 40.613281 111.503906 C 42.90625 113.796875 45.21875 115.214844 47.933594 116.273438 C 50.566406 117.292969 53.566406 117.988281 57.96875 118.191406 C 62.378906 118.394531 63.789062 118.441406 75.015625 118.441406 C 86.242188 118.441406 87.652344 118.394531 92.0625 118.191406 C 96.464844 117.988281 99.464844 117.292969 102.097656 116.273438 C 104.8125 115.214844 107.121094 113.804688 109.417969 111.503906 C 111.710938 109.199219 113.128906 106.898438 114.1875 104.183594 C 115.207031 101.550781 115.90625 98.550781 116.109375 94.148438 C 116.308594 89.738281 116.355469 88.328125 116.355469 77.101562 Z M 116.355469 77.101562 " fill-opacity="1" fill-rule="nonzero"/></svg>