<svg xmlns="http://www.w3.org/2000/svg" xmlns:xlink="http://www.w3.org/1999/xlink" width="200" zoomAndPan="magnify" viewBox="0 0 150 149.999998" height="200" preserveAspectRatio="xMidYMid meet" version="1.0"><rect x="-15" width="180" fill="#f7df1e" y="-15" height="179.999997" fill-opacity="1"/><path fill="#000000" d="M 39.441406 125.347656 L 50.917969 118.40625 C 53.132812 122.332031 55.148438 125.652344 59.984375 125.652344 C 64.613281 125.652344 67.535156 123.835938 67.535156 116.792969 L 67.535156 68.863281 L 81.625 68.863281 L 81.625 116.992188 C 81.625 131.589844 73.070312 138.238281 60.585938 138.238281 C 49.308594 138.238281 42.761719 132.398438 39.441406 125.347656 " fill-opacity="1" fill-rule="nonzero"/><path fill="#000000" d="M 89.285156 123.839844 L 100.761719 117.195312 C 103.785156 122.128906 107.710938 125.753906 114.65625 125.753906 C 120.496094 125.753906 124.222656 122.835938 124.222656 118.804688 C 124.222656 113.972656 120.398438 112.261719 113.953125 109.441406 L 110.429688 107.929688 C 100.257812 103.601562 93.515625 98.167969 93.515625 86.683594 C 93.515625 76.113281 101.566406 68.058594 114.15625 68.058594 C 123.117188 68.058594 129.5625 71.179688 134.191406 79.335938 L 123.21875 86.386719 C 120.804688 82.054688 118.183594 80.34375 114.15625 80.34375 C 110.027344 80.34375 107.40625 82.964844 107.40625 86.386719 C 107.40625 90.617188 110.027344 92.328125 116.066406 94.945312 L 119.589844 96.453125 C 131.570312 101.589844 138.320312 106.824219 138.320312 118.605469 C 138.320312 131.292969 128.355469 138.242188 114.960938 138.242188 C 101.871094 138.242188 93.414062 131.996094 89.285156 123.839844 " fill-opacity="1" fill-rule="nonzero"/></svg>