<svg xmlns="http://www.w3.org/2000/svg" xmlns:xlink="http://www.w3.org/1999/xlink" width="200" zoomAndPan="magnify" viewBox="0 0 150 149.999998" height="200" preserveAspectRatio="xMidYMid meet" version="1.0"><path fill="#5382a1" d="M 55.835938 115.015625 C 55.835938 115.015625 50.152344 118.324219 59.882812 119.445312 C 71.671875 120.789062 77.691406 120.59375 90.679688 118.136719 C 90.679688 118.136719 94.09375 120.277344 98.867188 122.132812 C 69.75 134.613281 32.96875 121.410156 55.835938 115.015625 " fill-opacity="1" fill-rule="nonzero"/><path fill="#5382a1" d="M 52.277344 98.734375 C 52.277344 98.734375 45.902344 103.453125 55.640625 104.460938 C 68.230469 105.757812 78.175781 105.867188 95.378906 102.550781 C 95.378906 102.550781 97.761719 104.964844 101.503906 106.285156 C 66.296875 116.578125 27.085938 107.097656 52.277344 98.734375 " fill-opacity="1" fill-rule="nonzero"/><path fill="#e76f00" d="M 82.273438 71.105469 C 89.449219 79.371094 80.386719 86.804688 80.386719 86.804688 C 80.386719 86.804688 98.609375 77.398438 90.242188 65.621094 C 82.425781 54.636719 76.433594 49.183594 108.875 30.367188 C 108.875 30.367188 57.953125 43.082031 82.273438 71.105469 " fill-opacity="1" fill-rule="nonzero"/><path fill="#5382a1" d="M 120.785156 127.0625 C 120.785156 127.0625 124.992188 130.53125 116.152344 133.210938 C 99.34375 138.304688 46.195312 139.839844 31.433594 133.414062 C 26.128906 131.105469 36.082031 127.902344 39.210938 127.226562 C 42.476562 126.519531 44.34375 126.652344 44.34375 126.652344 C 38.441406 122.492188 6.191406 134.816406 27.960938 138.347656 C 87.328125 147.972656 136.183594 134.007812 120.785156 127.0625 " fill-opacity="1" fill-rule="nonzero"/><path fill="#5382a1" d="M 58.570312 81.859375 C 58.570312 81.859375 31.535156 88.28125 48.996094 90.613281 C 56.371094 91.601562 71.066406 91.378906 84.753906 90.226562 C 95.941406 89.285156 107.179688 87.277344 107.179688 87.277344 C 107.179688 87.277344 103.234375 88.972656 100.378906 90.917969 C 72.925781 98.140625 19.890625 94.78125 35.160156 87.394531 C 48.074219 81.152344 58.570312 81.859375 58.570312 81.859375 " fill-opacity="1" fill-rule="nonzero"/><path fill="#5382a1" d="M 107.066406 108.964844 C 134.972656 94.464844 122.066406 80.53125 113.0625 82.40625 C 110.855469 82.867188 109.871094 83.265625 109.871094 83.265625 C 109.871094 83.265625 110.6875 81.980469 112.257812 81.425781 C 130.074219 75.164062 143.777344 99.902344 106.503906 109.699219 C 106.503906 109.699219 106.9375 109.3125 107.066406 108.964844 " fill-opacity="1" fill-rule="nonzero"/><path fill="#e76f00" d="M 90.242188 -0.0117188 C 90.242188 -0.0117188 105.699219 15.449219 75.582031 39.222656 C 51.433594 58.289062 70.078125 69.164062 75.574219 81.589844 C 61.476562 68.871094 51.132812 57.675781 58.074219 47.257812 C 68.261719 31.960938 96.476562 24.546875 90.242188 -0.0117188 " fill-opacity="1" fill-rule="nonzero"/><path fill="#5382a1" d="M 61.3125 148.265625 C 88.101562 149.976562 129.234375 147.3125 130.207031 134.636719 C 130.207031 134.636719 128.332031 139.441406 108.070312 143.253906 C 85.207031 147.558594 57.007812 147.058594 40.285156 144.296875 C 40.285156 144.296875 43.707031 147.132812 61.3125 148.265625 " fill-opacity="1" fill-rule="nonzero"/></svg>