<svg xmlns="http://www.w3.org/2000/svg" xmlns:xlink="http://www.w3.org/1999/xlink" width="200" zoomAndPan="magnify" viewBox="0 0 150 149.999998" height="200" preserveAspectRatio="xMidYMid meet" version="1.0"><path fill="#242424" d="M 75 0 C 33.578125 0 0 33.578125 0 75 C 0 116.421875 33.578125 150 75 150 C 116.421875 150 150 116.421875 150 75 C 150 33.578125 116.421875 0 75 0 Z M 52.363281 111.765625 L 36.601562 111.765625 L 36.601562 61.816406 L 52.363281 61.816406 Z M 44.078125 55.566406 L 43.964844 55.566406 C 38.257812 55.566406 34.558594 51.75 34.558594 46.90625 C 34.558594 42.058594 38.371094 38.234375 44.191406 38.234375 C 50.011719 38.234375 53.578125 41.960938 53.699219 46.898438 C 53.699219 51.734375 50.011719 55.566406 44.085938 55.566406 Z M 115.441406 111.765625 L 97.558594 111.765625 L 97.558594 85.914062 C 97.558594 79.148438 94.761719 74.527344 88.613281 74.527344 C 83.910156 74.527344 81.292969 77.648438 80.078125 80.648438 C 79.621094 81.726562 79.695312 83.226562 79.695312 84.726562 L 79.695312 111.757812 L 61.988281 111.757812 C 61.988281 111.757812 62.210938 65.96875 61.988281 61.808594 L 79.695312 61.808594 L 79.695312 69.644531 C 80.738281 66.21875 86.398438 61.328125 95.429688 61.328125 C 106.636719 61.328125 115.441406 68.511719 115.441406 83.984375 Z M 115.441406 111.765625 " fill-opacity="1" fill-rule="nonzero"/></svg>