<svg xmlns="http://www.w3.org/2000/svg" xmlns:xlink="http://www.w3.org/1999/xlink" width="200" zoomAndPan="magnify" viewBox="0 0 150 149.999998" height="200" preserveAspectRatio="xMidYMid meet" version="1.0"><path fill="#00678c" d="M 138.359375 117.0625 C 130.328125 116.839844 124.09375 117.660156 118.871094 119.859375 C 117.367188 120.460938 114.957031 120.460938 114.757812 122.355469 C 115.5625 123.148438 115.65625 124.449219 116.363281 125.550781 C 117.566406 127.546875 119.679688 130.238281 121.585938 131.636719 L 128.011719 136.230469 C 131.929688 138.625 136.347656 140.023438 140.164062 142.417969 C 142.375 143.816406 144.585938 145.613281 146.796875 147.113281 C 147.921875 147.910156 148.601562 149.210938 150.011719 149.707031 L 150.011719 149.40625 C 149.308594 148.511719 149.105469 147.210938 148.40625 146.210938 L 145.386719 143.316406 C 142.476562 139.425781 138.859375 136.027344 134.941406 133.234375 C 131.726562 131.039062 124.699219 128.046875 123.394531 124.355469 L 123.195312 124.128906 C 125.402344 123.90625 128.011719 123.128906 130.125 122.53125 C 133.542969 121.636719 136.652344 121.832031 140.164062 120.933594 L 144.988281 119.535156 L 144.988281 118.640625 C 143.183594 116.84375 141.875 114.449219 139.96875 112.753906 C 134.847656 108.359375 129.21875 104.066406 123.394531 100.472656 C 120.28125 98.476562 116.261719 97.179688 112.945312 95.484375 C 111.738281 94.886719 109.730469 94.585938 109.03125 93.585938 C 107.21875 91.394531 106.214844 88.496094 104.910156 85.898438 L 96.675781 68.53125 C 94.867188 64.636719 93.757812 60.746094 91.550781 57.152344 C 81.207031 40.183594 69.953125 29.902344 52.675781 19.816406 C 48.960938 17.722656 44.542969 16.820312 39.84375 15.722656 L 32.3125 15.320312 C 30.703125 14.621094 29.097656 12.726562 27.6875 11.824219 C 21.964844 8.230469 7.199219 0.445312 2.976562 10.707031 C 0.261719 17.195312 6.996094 23.582031 9.28125 26.878906 C 10.992188 29.171875 13.199219 31.769531 14.40625 34.363281 C 15.082031 36.058594 15.308594 37.859375 16.011719 39.65625 C 17.617188 44.046875 19.125 48.941406 21.234375 53.035156 C 22.359375 55.132812 23.542969 57.332031 24.949219 59.226562 C 25.753906 60.34375 27.160156 60.824219 27.460938 62.621094 C 26.050781 64.617188 25.957031 67.609375 25.152344 70.109375 C 21.535156 81.390625 22.941406 95.363281 28.0625 103.667969 C 29.671875 106.164062 33.464844 111.65625 38.613281 109.558594 C 43.132812 107.761719 42.125 102.070312 43.429688 97.082031 C 43.734375 95.882812 43.53125 95.085938 44.132812 94.285156 L 44.132812 94.507812 L 48.253906 102.792969 C 51.367188 107.683594 56.792969 112.773438 61.3125 116.171875 C 63.71875 117.96875 65.628906 121.066406 68.640625 122.160156 L 68.640625 121.859375 L 68.441406 121.859375 C 67.839844 120.964844 66.933594 120.5625 66.128906 119.863281 C 64.324219 118.066406 62.316406 115.871094 60.90625 113.875 C 56.691406 108.285156 52.976562 102.09375 49.660156 95.707031 C 48.050781 92.613281 46.644531 89.21875 45.34375 86.125 C 44.734375 84.925781 44.734375 83.125 43.730469 82.53125 C 42.222656 84.722656 40.019531 86.625 38.90625 89.320312 C 37 93.609375 36.800781 98.902344 36.097656 104.390625 C 35.691406 104.492188 35.871094 104.390625 35.691406 104.617188 C 32.480469 103.820312 31.375 100.519531 30.171875 97.730469 C 27.15625 90.640625 26.652344 79.261719 29.265625 71.074219 C 29.96875 68.980469 32.984375 62.390625 31.78125 60.394531 C 31.171875 58.496094 29.167969 57.402344 28.0625 55.902344 C 26.753906 54.003906 25.351562 51.609375 24.449219 49.511719 C 22.039062 43.921875 20.835938 37.734375 18.21875 32.144531 C 17.011719 29.546875 14.902344 26.851562 13.195312 24.457031 C 11.285156 21.761719 9.179688 19.863281 7.671875 16.671875 C 7.171875 15.550781 6.46875 13.777344 7.273438 12.578125 C 7.46875 11.777344 7.875 11.457031 8.675781 11.28125 C 9.980469 10.160156 13.699219 11.578125 15.003906 12.175781 C 18.71875 13.671875 21.832031 15.070312 24.945312 17.164062 C 26.355469 18.160156 27.863281 20.058594 29.671875 20.558594 L 31.78125 20.558594 C 34.996094 21.257812 38.609375 20.785156 41.621094 21.679688 C 46.945312 23.378906 51.765625 25.871094 56.085938 28.570312 C 69.246094 36.855469 80.097656 48.632812 87.425781 62.710938 C 88.628906 65.007812 89.132812 67.105469 90.238281 69.5 C 92.351562 74.394531 94.964844 79.382812 97.070312 84.175781 C 99.179688 88.867188 101.1875 93.664062 104.199219 97.554688 C 105.710938 99.652344 111.734375 100.75 114.445312 101.847656 C 116.453125 102.742188 119.566406 103.546875 121.378906 104.644531 C 124.792969 106.742188 128.207031 109.136719 131.417969 111.433594 C 133.023438 112.628906 138.050781 115.125 138.347656 117.117188 Z M 35.925781 30.316406 C 34.53125 30.300781 33.160156 30.46875 31.808594 30.8125 L 31.808594 31.039062 L 32.007812 31.039062 C 32.8125 32.636719 34.21875 33.734375 35.222656 35.132812 L 37.535156 39.925781 L 37.730469 39.699219 C 39.140625 38.703125 39.84375 37.105469 39.84375 34.710938 C 39.242188 34.011719 39.140625 33.3125 38.640625 32.613281 C 38.035156 31.617188 36.730469 31.117188 35.925781 30.320312 Z M 35.925781 30.316406 " fill-opacity="1" fill-rule="evenodd"/></svg>