<svg xmlns="http://www.w3.org/2000/svg" xmlns:xlink="http://www.w3.org/1999/xlink" width="200" zoomAndPan="magnify" viewBox="0 0 150 149.999998" height="200" preserveAspectRatio="xMidYMid meet" version="1.0"><defs><clipPath id="e7590bea2a"><path d="M 7.5 1.203125 L 142 1.203125 L 142 149.703125 L 7.5 149.703125 Z M 7.5 1.203125 " clip-rule="nonzero"/></clipPath></defs><g clip-path="url(#e7590bea2a)"><path fill="#8cc84b" d="M 68.769531 3.179688 C 72.476562 1.082031 77.207031 1.074219 80.820312 3.179688 L 136.1875 34.324219 C 139.648438 36.269531 141.964844 40.121094 141.933594 44.105469 L 141.933594 106.558594 C 141.957031 110.707031 139.410156 114.644531 135.757812 116.550781 L 80.691406 147.554688 C 79.75 148.074219 78.757812 148.460938 77.710938 148.714844 C 76.664062 148.96875 75.605469 149.082031 74.53125 149.050781 C 73.453125 149.023438 72.402344 148.851562 71.371094 148.539062 C 70.34375 148.230469 69.371094 147.789062 68.460938 147.21875 L 51.933594 137.6875 C 50.808594 137.015625 49.542969 136.484375 48.746094 135.398438 C 49.449219 134.453125 50.703125 134.335938 51.722656 133.917969 C 54.019531 133.1875 56.125 132.066406 58.238281 130.882812 C 58.773438 130.511719 59.425781 130.652344 59.933594 130.984375 L 74.027344 139.117188 C 75.03125 139.695312 76.050781 138.933594 76.914062 138.445312 L 130.984375 107.992188 C 131.652344 107.667969 132.023438 106.964844 131.96875 106.234375 L 131.96875 44.382812 C 132.042969 43.550781 131.566406 42.792969 130.808594 42.453125 L 75.878906 11.582031 C 75.558594 11.359375 75.199219 11.246094 74.804688 11.246094 C 74.410156 11.246094 74.050781 11.355469 73.726562 11.578125 L 18.875 42.515625 C 18.132812 42.851562 17.625 43.601562 17.71875 44.433594 L 17.71875 106.285156 C 17.652344 107.015625 18.042969 107.707031 18.714844 108.019531 L 33.371094 116.277344 C 36.125 117.757812 39.503906 118.589844 42.535156 117.503906 C 43.199219 117.253906 43.808594 116.910156 44.367188 116.476562 C 44.925781 116.039062 45.40625 115.53125 45.808594 114.949219 C 46.210938 114.367188 46.515625 113.738281 46.726562 113.0625 C 46.933594 112.386719 47.039062 111.695312 47.035156 110.984375 L 47.050781 49.503906 C 46.984375 48.59375 47.847656 47.839844 48.730469 47.929688 L 55.777344 47.929688 C 56.703125 47.90625 57.433594 48.890625 57.308594 49.804688 L 57.292969 111.675781 C 57.296875 117.171875 55.035156 123.148438 49.941406 125.84375 C 43.664062 129.082031 35.90625 128.402344 29.703125 125.289062 L 13.945312 116.59375 C 10.234375 114.742188 7.746094 110.746094 7.769531 106.601562 L 7.769531 44.148438 C 7.777344 43.132812 7.917969 42.136719 8.191406 41.160156 C 8.46875 40.183594 8.867188 39.257812 9.390625 38.386719 C 9.910156 37.515625 10.539062 36.730469 11.273438 36.027344 C 12.007812 35.324219 12.820312 34.726562 13.710938 34.242188 Z M 84.734375 46.46875 C 92.738281 46.007812 101.308594 46.164062 108.511719 50.101562 C 114.089844 53.117188 117.179688 59.445312 117.28125 65.636719 C 117.125 66.46875 116.253906 66.929688 115.457031 66.871094 C 113.140625 66.867188 110.8125 66.902344 108.484375 66.855469 C 107.5 66.894531 106.929688 65.988281 106.804688 65.117188 C 106.136719 62.15625 104.515625 59.226562 101.726562 57.800781 C 97.445312 55.65625 92.476562 55.761719 87.800781 55.808594 C 84.390625 55.996094 80.722656 56.285156 77.835938 58.285156 C 75.613281 59.800781 74.945312 62.910156 75.738281 65.324219 C 76.480469 67.097656 78.53125 67.667969 80.207031 68.195312 C 89.855469 70.710938 100.078125 70.507812 109.546875 73.777344 C 113.464844 75.128906 117.296875 77.757812 118.640625 81.851562 C 120.394531 87.335938 119.628906 93.898438 115.722656 98.300781 C 112.550781 101.929688 107.933594 103.851562 103.320312 104.972656 C 97.1875 106.335938 90.828125 106.367188 84.605469 105.757812 C 78.75 105.09375 72.660156 103.554688 68.140625 99.578125 C 64.273438 96.226562 62.390625 91.011719 62.578125 85.976562 C 62.625 85.125 63.472656 84.535156 64.292969 84.601562 L 71.246094 84.601562 C 72.183594 84.539062 72.867188 85.34375 72.914062 86.222656 C 73.34375 88.996094 74.40625 92.003906 76.871094 93.625 C 81.628906 96.6875 87.59375 96.472656 93.035156 96.5625 C 97.546875 96.363281 102.609375 96.300781 106.292969 93.324219 C 108.238281 91.625 108.808594 88.789062 108.285156 86.347656 C 107.714844 84.285156 105.503906 83.324219 103.652344 82.644531 C 94.125 79.640625 83.789062 80.730469 74.355469 77.324219 C 70.527344 75.976562 66.824219 73.421875 65.355469 69.492188 C 63.300781 63.941406 64.242188 57.0625 68.566406 52.808594 C 72.738281 48.574219 78.855469 46.941406 84.652344 46.359375 Z M 84.734375 46.46875 " fill-opacity="1" fill-rule="nonzero"/></g></svg>