<svg xmlns="http://www.w3.org/2000/svg" xmlns:xlink="http://www.w3.org/1999/xlink" width="200" zoomAndPan="magnify" viewBox="0 0 150 149.999998" height="200" preserveAspectRatio="xMidYMid meet" version="1.0"><defs><clipPath id="d0c3eff11d"><path d="M 5.046875 8 L 144 8 L 144 150 L 5.046875 150 Z M 5.046875 8 " clip-rule="nonzero"/></clipPath></defs><g clip-path="url(#d0c3eff11d)"><path fill="#000000" d="M 142.855469 93.335938 C 142.023438 90.835938 139.859375 89.097656 137.058594 88.679688 C 135.742188 88.484375 134.226562 88.566406 132.441406 88.9375 C 129.324219 89.574219 127.007812 89.824219 125.316406 89.871094 C 131.691406 79.136719 136.878906 66.894531 139.859375 55.375 C 144.683594 36.746094 142.105469 28.257812 139.089844 24.417969 C 131.121094 14.257812 119.488281 8.796875 105.457031 8.632812 C 97.972656 8.539062 91.398438 10.015625 87.972656 11.074219 C 84.78125 10.511719 81.347656 10.199219 77.75 10.140625 C 70.996094 10.035156 65.03125 11.5 59.9375 14.519531 C 57.117188 13.566406 52.589844 12.226562 47.359375 11.367188 C 35.0625 9.355469 25.148438 10.925781 17.898438 16.035156 C 9.121094 22.21875 5.050781 32.964844 5.800781 47.976562 C 6.042969 52.742188 8.714844 67.246094 12.921875 80.992188 C 15.339844 88.898438 17.921875 95.460938 20.585938 100.503906 C 24.371094 107.660156 28.417969 111.867188 32.964844 113.382812 C 35.511719 114.226562 40.140625 114.824219 45.007812 110.777344 C 45.625 111.519531 46.449219 112.261719 47.539062 112.949219 C 48.925781 113.824219 50.625 114.539062 52.316406 114.957031 C 58.425781 116.480469 64.144531 116.101562 69.023438 113.96875 C 69.054688 114.832031 69.074219 115.660156 69.097656 116.375 C 69.128906 117.535156 69.160156 118.667969 69.203125 119.730469 C 69.492188 126.910156 69.980469 132.496094 71.433594 136.40625 C 71.515625 136.621094 71.621094 136.949219 71.734375 137.292969 C 72.457031 139.507812 73.667969 143.210938 76.746094 146.113281 C 79.941406 149.113281 83.800781 150.03125 87.332031 150.03125 C 89.105469 150.03125 90.796875 149.800781 92.28125 149.484375 C 97.566406 148.355469 103.570312 146.632812 107.917969 140.460938 C 112.023438 134.628906 114.015625 125.847656 114.378906 112.003906 C 114.425781 111.609375 114.46875 111.242188 114.511719 110.878906 C 114.539062 110.644531 114.566406 110.398438 114.597656 110.148438 L 115.566406 110.234375 L 115.816406 110.253906 C 121.199219 110.5 127.785156 109.359375 131.828125 107.488281 C 135.023438 106.003906 145.265625 100.613281 142.855469 93.335938 " fill-opacity="1" fill-rule="nonzero"/></g><path fill="#336791" d="M 133.648438 94.746094 C 117.632812 98.046875 116.53125 92.636719 116.53125 92.636719 C 133.4375 67.609375 140.507812 35.847656 134.40625 28.078125 C 117.769531 6.871094 88.964844 16.898438 88.484375 17.160156 L 88.328125 17.1875 C 85.167969 16.53125 81.625 16.140625 77.648438 16.078125 C 70.398438 15.957031 64.910156 17.972656 60.734375 21.125 C 60.734375 21.125 9.355469 0.0117188 11.746094 47.679688 C 12.253906 57.820312 26.316406 124.410156 43.089844 104.296875 C 49.222656 96.945312 55.144531 90.726562 55.144531 90.726562 C 58.085938 92.675781 61.609375 93.667969 65.300781 93.3125 L 65.585938 93.066406 C 65.5 93.980469 65.539062 94.878906 65.707031 95.933594 C 61.382812 100.746094 62.652344 101.59375 54.015625 103.367188 C 45.273438 105.167969 50.40625 108.363281 53.761719 109.199219 C 57.824219 110.214844 67.230469 111.648438 73.582031 102.777344 L 73.328125 103.792969 C 75.019531 105.144531 76.210938 112.589844 76.011719 119.339844 C 75.8125 126.089844 75.675781 130.726562 77.011719 134.34375 C 78.347656 137.964844 79.675781 146.105469 91.03125 143.679688 C 100.519531 141.65625 105.441406 136.398438 106.125 127.625 C 106.609375 121.398438 107.707031 122.316406 107.777344 116.746094 L 108.652344 114.105469 C 109.671875 105.65625 108.816406 102.925781 114.664062 104.195312 L 116.082031 104.324219 C 120.386719 104.515625 126.019531 103.632812 129.324219 102.101562 C 136.441406 98.804688 140.664062 93.304688 133.640625 94.75 L 133.648438 94.75 " fill-opacity="1" fill-rule="nonzero"/><path fill="#ffffff" d="M 63.746094 52.214844 C 62.300781 52.015625 60.996094 52.199219 60.332031 52.699219 C 59.960938 52.980469 59.847656 53.304688 59.816406 53.53125 C 59.734375 54.125 60.148438 54.78125 60.402344 55.117188 C 61.128906 56.078125 62.191406 56.734375 63.234375 56.878906 C 63.390625 56.902344 63.539062 56.910156 63.6875 56.910156 C 65.4375 56.910156 67.023438 55.554688 67.164062 54.550781 C 67.34375 53.296875 65.511719 52.460938 63.746094 52.214844 " fill-opacity="1" fill-rule="nonzero"/><path fill="#ffffff" d="M 111.546875 52.253906 C 111.40625 51.273438 109.65625 50.992188 107.988281 51.222656 C 106.328125 51.453125 104.710938 52.203125 104.847656 53.1875 C 104.957031 53.953125 106.34375 55.261719 107.988281 55.261719 C 108.125 55.261719 108.265625 55.253906 108.40625 55.234375 C 109.5 55.082031 110.308594 54.386719 110.6875 53.988281 C 111.269531 53.378906 111.605469 52.695312 111.546875 52.253906 " fill-opacity="1" fill-rule="nonzero"/><path fill="#ffffff" d="M 138.972656 94.378906 C 138.363281 92.535156 136.398438 91.9375 133.128906 92.617188 C 123.4375 94.609375 119.964844 93.226562 118.824219 92.390625 C 126.363281 80.941406 132.558594 67.101562 135.902344 54.183594 C 137.492188 48.066406 138.363281 42.386719 138.433594 37.757812 C 138.515625 32.671875 137.648438 28.9375 135.855469 26.65625 C 128.640625 17.460938 118.050781 12.527344 105.230469 12.390625 C 96.414062 12.292969 88.96875 14.542969 87.527344 15.175781 C 84.492188 14.421875 81.171875 13.957031 77.566406 13.898438 C 70.949219 13.792969 65.230469 15.371094 60.5 18.59375 C 58.441406 17.828125 53.125 16.007812 46.625 14.964844 C 35.386719 13.160156 26.457031 14.527344 20.085938 19.03125 C 12.480469 24.40625 8.96875 34.011719 9.648438 47.578125 C 9.878906 52.144531 12.488281 66.191406 16.601562 79.640625 C 22.019531 97.347656 27.910156 107.367188 34.105469 109.429688 C 34.832031 109.671875 35.667969 109.839844 36.589844 109.839844 C 38.847656 109.839844 41.621094 108.824219 44.503906 105.363281 C 49.292969 99.617188 53.765625 94.800781 55.410156 93.050781 C 57.847656 94.355469 60.527344 95.085938 63.261719 95.15625 C 63.265625 95.230469 63.273438 95.300781 63.277344 95.371094 C 62.726562 96.019531 62.28125 96.589844 61.894531 97.078125 C 60 99.480469 59.605469 99.976562 53.5 101.230469 C 51.765625 101.589844 47.152344 102.535156 47.085938 105.761719 C 47.011719 109.285156 52.535156 110.761719 53.164062 110.917969 C 55.359375 111.464844 57.472656 111.738281 59.488281 111.738281 C 64.390625 111.738281 68.703125 110.132812 72.148438 107.023438 C 72.042969 119.582031 72.570312 131.960938 74.078125 135.730469 C 75.316406 138.820312 78.339844 146.359375 87.898438 146.359375 C 89.296875 146.359375 90.84375 146.199219 92.539062 145.832031 C 102.511719 143.699219 106.839844 139.308594 108.519531 129.613281 C 109.414062 124.4375 110.953125 112.0625 111.675781 105.429688 C 113.203125 105.902344 115.167969 106.121094 117.296875 106.121094 C 121.726562 106.121094 126.839844 105.183594 130.042969 103.695312 C 133.652344 102.03125 140.152344 97.933594 138.972656 94.378906 Z M 115.226562 49.539062 C 115.191406 51.5 114.921875 53.277344 114.636719 55.132812 C 114.328125 57.128906 114.011719 59.195312 113.929688 61.699219 C 113.847656 64.136719 114.15625 66.671875 114.453125 69.125 C 115.042969 74.078125 115.660156 79.171875 113.289062 84.207031 C 112.917969 83.550781 112.5625 82.839844 112.238281 82.050781 C 111.945312 81.335938 111.304688 80.191406 110.421875 78.609375 C 106.972656 72.449219 98.910156 58.015625 103.039062 52.125 C 104.265625 50.371094 107.390625 48.570312 115.226562 49.539062 Z M 105.726562 16.359375 C 117.214844 16.609375 126.296875 20.898438 132.730469 29.097656 C 137.664062 35.386719 132.230469 64.007812 116.503906 88.695312 C 116.347656 88.496094 116.191406 88.296875 116.023438 88.09375 C 115.960938 88.011719 115.894531 87.925781 115.824219 87.84375 C 119.890625 81.148438 119.097656 74.527344 118.386719 68.652344 C 118.097656 66.238281 117.824219 63.960938 117.894531 61.824219 C 117.96875 59.558594 118.269531 57.613281 118.554688 55.734375 C 118.914062 53.417969 119.277344 51.023438 119.179688 48.195312 C 119.253906 47.898438 119.28125 47.550781 119.246094 47.132812 C 118.984375 44.425781 115.886719 36.316406 109.5625 28.976562 C 106.105469 24.960938 101.066406 20.46875 94.179688 17.4375 C 97.144531 16.828125 101.191406 16.257812 105.726562 16.355469 Z M 41.449219 102.835938 C 38.273438 106.640625 36.078125 105.910156 35.359375 105.675781 C 30.65625 104.105469 25.203125 94.199219 20.394531 78.484375 C 16.234375 64.886719 13.804688 51.214844 13.609375 47.382812 C 13.003906 35.253906 15.949219 26.804688 22.371094 22.265625 C 32.816406 14.875 49.992188 19.296875 56.894531 21.539062 C 56.796875 21.636719 56.691406 21.730469 56.59375 21.828125 C 45.269531 33.238281 45.535156 52.730469 45.566406 53.921875 C 45.5625 54.382812 45.601562 55.035156 45.65625 55.929688 C 45.851562 59.207031 46.214844 65.308594 45.246094 72.222656 C 44.34375 78.640625 46.328125 84.929688 50.6875 89.460938 C 51.140625 89.933594 51.609375 90.375 52.097656 90.789062 C 50.15625 92.863281 45.9375 97.449219 41.449219 102.835938 Z M 53.554688 86.722656 C 50.039062 83.070312 48.445312 77.980469 49.175781 72.769531 C 50.195312 65.464844 49.820312 59.109375 49.617188 55.695312 C 49.589844 55.214844 49.5625 54.796875 49.546875 54.46875 C 51.203125 53.003906 58.871094 48.90625 64.335938 50.15625 C 66.832031 50.726562 68.351562 52.421875 68.988281 55.335938 C 72.253906 70.429688 69.417969 76.71875 67.140625 81.777344 C 66.667969 82.8125 66.226562 83.800781 65.84375 84.816406 L 65.550781 85.605469 C 64.804688 87.597656 64.113281 89.445312 63.683594 91.203125 C 59.949219 91.191406 56.316406 89.601562 53.554688 86.722656 Z M 54.125 107.082031 C 53.035156 106.808594 52.054688 106.335938 51.480469 105.945312 C 51.960938 105.71875 52.816406 105.414062 54.300781 105.105469 C 61.480469 103.636719 62.589844 102.59375 65.007812 99.527344 C 65.570312 98.824219 66.191406 98.023438 67.066406 97.054688 L 67.066406 97.050781 C 68.367188 95.601562 68.960938 95.847656 70.039062 96.292969 C 70.910156 96.652344 71.761719 97.742188 72.105469 98.945312 C 72.265625 99.511719 72.449219 100.589844 71.851562 101.425781 C 66.789062 108.488281 59.421875 108.402344 54.125 107.082031 Z M 91.707031 141.964844 C 82.921875 143.839844 79.808594 139.371094 77.761719 134.257812 C 76.4375 130.960938 75.789062 116.078125 76.25 99.644531 C 76.257812 99.429688 76.222656 99.214844 76.164062 99.015625 C 76.109375 98.636719 76.03125 98.25 75.917969 97.855469 C 75.234375 95.464844 73.5625 93.46875 71.554688 92.636719 C 70.757812 92.308594 69.292969 91.703125 67.539062 92.152344 C 67.914062 90.609375 68.5625 88.871094 69.265625 86.992188 L 69.5625 86.195312 C 69.898438 85.304688 70.3125 84.375 70.757812 83.398438 C 73.144531 78.109375 76.410156 70.863281 72.863281 54.5 C 71.535156 48.371094 67.097656 45.375 60.371094 46.070312 C 56.335938 46.488281 52.648438 48.109375 50.808594 49.042969 C 50.414062 49.242188 50.050781 49.433594 49.710938 49.621094 C 50.226562 43.445312 52.167969 31.902344 59.425781 24.601562 C 63.996094 20.003906 70.082031 17.734375 77.5 17.855469 C 92.113281 18.09375 101.480469 25.574219 106.765625 31.808594 C 111.328125 37.179688 113.792969 42.589844 114.777344 45.507812 C 107.375 44.757812 102.335938 46.214844 99.785156 49.855469 C 94.226562 57.777344 102.820312 73.152344 106.949219 80.535156 C 107.710938 81.890625 108.359375 83.058594 108.570312 83.558594 C 109.910156 86.808594 111.65625 88.980469 112.925781 90.566406 C 113.3125 91.050781 113.695312 91.523438 113.980469 91.933594 C 111.738281 92.578125 107.710938 94.070312 108.074219 101.519531 C 107.78125 105.257812 105.675781 122.753906 104.601562 128.941406 C 103.191406 137.109375 100.175781 140.148438 91.707031 141.964844 Z M 128.375 100.105469 C 126.078125 101.167969 122.242188 101.964844 118.597656 102.136719 C 114.570312 102.324219 112.519531 101.683594 112.039062 101.292969 C 111.8125 96.652344 113.539062 96.164062 115.375 95.652344 C 115.660156 95.574219 115.945312 95.492188 116.214844 95.402344 C 116.382812 95.535156 116.570312 95.671875 116.769531 95.804688 C 120.007812 97.9375 125.785156 98.167969 133.929688 96.488281 C 133.960938 96.480469 133.996094 96.476562 134.023438 96.46875 C 132.921875 97.496094 131.042969 98.871094 128.375 100.105469 Z M 128.375 100.105469 " fill-opacity="1" fill-rule="nonzero"/></svg>