<svg xmlns="http://www.w3.org/2000/svg" xmlns:xlink="http://www.w3.org/1999/xlink" width="200" zoomAndPan="magnify" viewBox="0 0 150 149.999998" height="200" preserveAspectRatio="xMidYMid meet" version="1.0"><defs><clipPath id="d775697807"><path d="M 0.0546875 2.625 L 149.941406 2.625 L 149.941406 147.375 L 0.0546875 147.375 Z M 0.0546875 2.625 " clip-rule="nonzero"/></clipPath></defs><rect x="-15" width="180" fill="#ffffff" y="-15" height="179.999997" fill-opacity="1"/><rect x="-15" width="180" fill="#ffffff" y="-15" height="179.999997" fill-opacity="1"/><rect x="-15" width="180" fill="#ffffff" y="-15" height="179.999997" fill-opacity="1"/><g clip-path="url(#d775697807)"><path fill="#242424" d="M 93.625 3.230469 C 89.589844 7.125 88.113281 13.304688 90.800781 18.34375 C 93.003906 22.480469 97.570312 24.796875 96.472656 30.15625 C 96.070312 32.148438 95.019531 34.199219 93.625 35.6875 C 91.765625 37.683594 94.757812 40.691406 96.628906 38.691406 C 100.410156 34.644531 102.121094 28.535156 99.753906 23.367188 C 97.855469 19.234375 92.8125 16.734375 93.714844 11.582031 C 94.058594 9.605469 95.183594 7.625 96.628906 6.230469 C 98.601562 4.332031 95.597656 1.332031 93.625 3.230469 Z M 78.730469 3.230469 C 74.691406 7.125 73.21875 13.304688 75.90625 18.34375 C 78.109375 22.480469 82.667969 24.796875 81.578125 30.15625 C 81.175781 32.148438 80.125 34.199219 78.730469 35.6875 C 76.871094 37.683594 79.867188 40.691406 81.738281 38.691406 C 85.515625 34.644531 87.226562 28.535156 84.859375 23.367188 C 82.960938 19.234375 77.914062 16.734375 78.820312 11.582031 C 79.164062 9.605469 80.289062 7.625 81.738281 6.230469 C 83.703125 4.332031 80.699219 1.332031 78.730469 3.230469 Z M 63.835938 3.230469 C 59.800781 7.125 58.320312 13.304688 61.007812 18.34375 C 63.210938 22.480469 67.777344 24.796875 66.683594 30.15625 C 66.277344 32.148438 65.230469 34.199219 63.835938 35.6875 C 61.972656 37.683594 64.972656 40.691406 66.835938 38.691406 C 70.621094 34.644531 72.328125 28.535156 69.960938 23.367188 C 68.066406 19.234375 63.019531 16.734375 63.921875 11.582031 C 64.265625 9.605469 65.394531 7.625 66.835938 6.230469 C 68.808594 4.332031 65.804688 1.332031 63.835938 3.230469 Z M 118.023438 58.078125 C 111.417969 62.726562 104.808594 67.378906 98.203125 72.027344 C 101.140625 72.53125 104.097656 71.984375 106.863281 69.796875 C 112.371094 65.421875 124.097656 62.148438 132.121094 64.425781 C 135.246094 65.316406 137.597656 66.992188 139.03125 69.3125 C 143.351562 67.71875 144.511719 66.386719 144.511719 65.964844 C 144.511719 65.238281 141.222656 61.960938 125.113281 59.15625 C 122.871094 58.765625 120.496094 58.410156 118.023438 58.078125 Z M 144.285156 71.644531 C 144.15625 71.714844 144.023438 71.78125 143.894531 71.851562 C 143.8125 71.890625 143.746094 71.929688 143.664062 71.972656 C 143.441406 72.085938 143.210938 72.191406 142.96875 72.300781 C 142.921875 72.328125 142.863281 72.351562 142.816406 72.375 C 142.597656 72.476562 142.375 72.574219 142.148438 72.671875 C 142.042969 72.714844 141.929688 72.757812 141.820312 72.804688 C 141.644531 72.878906 141.476562 72.949219 141.289062 73.023438 C 141.164062 73.070312 141.023438 73.125 140.886719 73.175781 C 140.71875 73.242188 140.542969 73.308594 140.363281 73.375 C 140.21875 73.425781 140.0625 73.480469 139.90625 73.53125 C 139.730469 73.597656 139.550781 73.660156 139.367188 73.722656 C 139.203125 73.777344 139.03125 73.835938 138.863281 73.886719 C 138.675781 73.949219 138.488281 74.007812 138.289062 74.074219 C 138.117188 74.125 137.933594 74.183594 137.753906 74.238281 C 137.546875 74.300781 137.347656 74.359375 137.136719 74.421875 C 136.949219 74.476562 136.757812 74.527344 136.5625 74.585938 C 136.34375 74.644531 136.128906 74.707031 135.898438 74.765625 C 135.703125 74.820312 135.496094 74.878906 135.289062 74.929688 C 135.058594 74.996094 134.824219 75.054688 134.582031 75.117188 C 134.367188 75.164062 134.160156 75.21875 133.9375 75.277344 C 133.691406 75.335938 133.429688 75.398438 133.164062 75.457031 C 132.949219 75.507812 132.730469 75.5625 132.503906 75.613281 C 132.226562 75.671875 131.945312 75.742188 131.660156 75.800781 C 131.433594 75.855469 131.210938 75.902344 130.976562 75.949219 C 130.675781 76.011719 130.355469 76.082031 130.042969 76.144531 C 129.816406 76.191406 129.585938 76.242188 129.355469 76.289062 C 129 76.355469 128.632812 76.425781 128.261719 76.496094 C 128.054688 76.539062 127.855469 76.574219 127.648438 76.617188 C 127.058594 76.722656 126.460938 76.835938 125.839844 76.941406 C 112.9375 79.1875 96.078125 80.484375 78.027344 80.640625 C 76.824219 80.648438 75.613281 80.65625 74.402344 80.65625 C 73.1875 80.65625 71.980469 80.648438 70.777344 80.640625 C 52.726562 80.484375 35.863281 79.1875 22.964844 76.941406 C 22.347656 76.835938 21.746094 76.722656 21.160156 76.617188 C 20.953125 76.574219 20.753906 76.539062 20.546875 76.5 C 20.175781 76.425781 19.804688 76.355469 19.449219 76.289062 C 19.214844 76.242188 18.996094 76.191406 18.765625 76.144531 C 18.449219 76.082031 18.136719 76.011719 17.828125 75.949219 C 17.597656 75.902344 17.375 75.855469 17.148438 75.800781 C 16.863281 75.742188 16.578125 75.671875 16.304688 75.613281 C 16.078125 75.5625 15.859375 75.507812 15.636719 75.457031 C 15.378906 75.398438 15.117188 75.335938 14.867188 75.277344 C 14.648438 75.21875 14.4375 75.164062 14.222656 75.117188 C 13.984375 75.054688 13.746094 74.996094 13.515625 74.929688 C 13.308594 74.878906 13.105469 74.820312 12.902344 74.765625 C 12.679688 74.707031 12.460938 74.644531 12.242188 74.585938 C 12.050781 74.527344 11.859375 74.476562 11.667969 74.421875 C 11.460938 74.359375 11.253906 74.300781 11.054688 74.238281 C 10.871094 74.183594 10.691406 74.125 10.515625 74.074219 C 10.320312 74.007812 10.132812 73.949219 9.941406 73.886719 C 9.773438 73.835938 9.601562 73.777344 9.441406 73.722656 C 9.253906 73.660156 9.078125 73.597656 8.898438 73.539062 C 8.746094 73.480469 8.589844 73.425781 8.4375 73.375 C 8.261719 73.308594 8.089844 73.242188 7.921875 73.175781 C 7.785156 73.125 7.644531 73.070312 7.515625 73.023438 C 7.335938 72.949219 7.167969 72.878906 6.996094 72.8125 C 6.882812 72.761719 6.765625 72.714844 6.65625 72.667969 C 6.433594 72.578125 6.226562 72.484375 6.019531 72.386719 C 5.949219 72.355469 5.871094 72.324219 5.800781 72.285156 C 5.574219 72.179688 5.355469 72.078125 5.144531 71.972656 C 5.0625 71.929688 4.984375 71.890625 4.902344 71.847656 C 4.773438 71.777344 4.644531 71.714844 4.523438 71.644531 C 7.425781 107.65625 37.660156 136.070312 74.402344 136.070312 C 111.148438 136.070312 141.378906 107.65625 144.285156 71.644531 Z M 93.628906 137.78125 C 87.496094 139.425781 81.054688 140.308594 74.402344 140.308594 C 67.753906 140.308594 61.308594 139.425781 55.171875 137.78125 L 55.171875 143.152344 L 93.628906 143.152344 Z M 4.292969 65.964844 C 4.292969 66.515625 6.214844 68.542969 14.25 70.722656 C 15.085938 68.273438 16.800781 64.691406 20.0625 62.710938 C 22.457031 61.25 25.210938 60.914062 28.253906 61.710938 C 32.027344 62.710938 34.605469 64.277344 36.675781 65.542969 C 40.269531 67.738281 42.246094 68.941406 48.175781 66.5 C 49.808594 65.824219 51.507812 65.058594 53.300781 64.242188 C 63.175781 59.761719 75.457031 54.191406 84.074219 63.058594 C 86.75 65.804688 89.9375 68.542969 93.300781 70.300781 C 93.464844 70.1875 93.628906 70.070312 93.789062 69.960938 C 95.046875 68.332031 96.308594 66.710938 97.5625 65.089844 C 99.746094 62.265625 101.9375 59.445312 104.121094 56.625 C 94.914062 55.894531 84.832031 55.507812 74.402344 55.507812 C 55.230469 55.507812 37.21875 56.804688 23.691406 59.15625 C 7.585938 61.960938 4.292969 65.238281 4.292969 65.964844 Z M 59.429688 74.503906 C 58.378906 75.085938 57.339844 75.589844 56.320312 76.011719 C 62.152344 76.277344 68.214844 76.414062 74.402344 76.414062 C 77.363281 76.414062 80.296875 76.378906 83.195312 76.320312 C 78.847656 72.707031 70.515625 68.34375 59.429688 74.503906 Z M 95.882812 75.847656 C 95.246094 75.671875 94.605469 75.457031 93.953125 75.210938 C 93.726562 75.171875 93.503906 75.085938 93.296875 74.957031 C 89.351562 73.308594 85.222656 70.320312 81.035156 66.011719 C 74.496094 59.285156 64.613281 63.769531 55.054688 68.105469 C 53.222656 68.9375 51.492188 69.722656 49.792969 70.421875 C 41.875 73.6875 38.277344 71.492188 34.46875 69.164062 C 32.441406 67.929688 30.347656 66.652344 27.175781 65.816406 C 25.265625 65.3125 23.660156 65.480469 22.265625 66.328125 C 20.257812 67.554688 19.046875 69.976562 18.398438 71.730469 C 19.246094 71.914062 20.144531 72.101562 21.089844 72.285156 C 21.351562 71.863281 21.6875 71.460938 22.132812 71.105469 C 24.050781 69.582031 27.054688 69.46875 31.308594 70.75 C 31.964844 70.949219 32.621094 71.152344 33.273438 71.355469 C 40.902344 73.710938 48.105469 75.9375 57.371094 70.792969 C 71.371094 63.015625 81.761719 69.3125 86.714844 73.761719 C 87.65625 74.601562 88.824219 75.390625 90.164062 76.109375 C 92.09375 76.035156 94.007812 75.949219 95.882812 75.847656 Z M 134.753906 70.671875 C 133.859375 69.695312 132.585938 68.96875 130.960938 68.507812 C 124.472656 66.664062 114.09375 69.472656 109.5 73.113281 C 108.464844 73.933594 107.390625 74.601562 106.277344 75.117188 C 109.4375 74.847656 112.476562 74.535156 115.394531 74.179688 C 119.1875 70.917969 125.113281 66.222656 130.550781 71.699219 C 132.117188 71.355469 133.507812 71.007812 134.753906 70.671875 Z M 109.113281 57.058594 C 107.910156 58.613281 106.707031 60.164062 105.503906 61.710938 C 107.585938 60.25 109.664062 58.785156 111.742188 57.324219 C 110.878906 57.234375 109.996094 57.144531 109.113281 57.058594 Z M 149.003906 36.277344 C 146.792969 37.832031 144.582031 39.386719 142.375 40.941406 C 135.941406 45.46875 129.507812 49.996094 123.078125 54.523438 C 124.015625 54.671875 124.9375 54.820312 125.839844 54.980469 C 146.378906 58.554688 148.753906 62.957031 148.753906 65.964844 C 148.753906 98.761719 127.402344 126.660156 97.871094 136.511719 L 97.871094 147.390625 L 50.933594 147.390625 L 50.933594 136.511719 C 21.402344 126.660156 0.0546875 98.761719 0.0546875 65.964844 C 0.0546875 62.957031 2.429688 58.554688 22.964844 54.980469 C 36.726562 52.585938 54.992188 51.265625 74.402344 51.265625 C 85.992188 51.265625 97.160156 51.738281 107.214844 52.628906 C 115.78125 41.570312 124.34375 30.515625 132.910156 19.460938 C 134.585938 17.300781 137.570312 20.328125 135.910156 22.460938 C 134.257812 24.597656 132.601562 26.734375 130.949219 28.871094 L 112.171875 53.105469 C 113.804688 53.28125 115.394531 53.464844 116.945312 53.660156 C 126.921875 46.648438 136.886719 39.628906 146.859375 32.613281 C 149.101562 31.035156 151.21875 34.71875 149.003906 36.277344 Z M 90.234375 131.316406 C 94.511719 130.117188 98.632812 128.527344 102.621094 126.574219 C 105.074219 125.375 102.921875 121.710938 100.472656 122.910156 C 96.808594 124.703125 93.03125 126.121094 89.109375 127.226562 C 86.480469 127.960938 87.59375 132.058594 90.234375 131.316406 Z M 113.070312 120.078125 C 110.902344 121.746094 108.792969 118.054688 110.929688 116.414062 C 120.71875 108.875 128.144531 98.613281 132.28125 86.980469 C 133.191406 84.421875 137.292969 85.527344 136.378906 88.109375 C 131.835938 100.882812 123.804688 111.816406 113.070312 120.078125 " fill-opacity="1" fill-rule="nonzero"/></g></svg>