<svg xmlns="http://www.w3.org/2000/svg" xmlns:xlink="http://www.w3.org/1999/xlink" width="200" zoomAndPan="magnify" viewBox="0 0 150 149.999998" height="200" preserveAspectRatio="xMidYMid meet" version="1.0"><path fill="#00d8ff" d="M 123.269531 51.484375 C 121.71875 50.949219 120.109375 50.445312 118.449219 49.964844 C 118.722656 48.855469 118.976562 47.757812 119.199219 46.679688 C 122.84375 28.984375 120.460938 14.726562 112.308594 10.03125 C 104.492188 5.53125 91.707031 10.222656 78.796875 21.441406 C 77.558594 22.519531 76.3125 23.664062 75.070312 24.859375 C 74.238281 24.070312 73.414062 23.304688 72.589844 22.570312 C 59.058594 10.574219 45.496094 5.519531 37.351562 10.226562 C 29.542969 14.742188 27.230469 28.144531 30.519531 44.917969 C 30.835938 46.535156 31.207031 48.191406 31.625 49.875 C 29.707031 50.417969 27.855469 50.996094 26.082031 51.613281 C 10.21875 57.136719 0.0898438 65.792969 0.0898438 74.773438 C 0.0898438 84.042969 10.964844 93.347656 27.484375 98.984375 C 28.789062 99.429688 30.140625 99.851562 31.535156 100.25 C 31.082031 102.066406 30.691406 103.847656 30.359375 105.589844 C 27.226562 122.070312 29.671875 135.15625 37.460938 139.640625 C 45.503906 144.277344 59.003906 139.511719 72.148438 128.039062 C 73.191406 127.132812 74.234375 126.167969 75.273438 125.164062 C 76.632812 126.460938 77.984375 127.695312 79.324219 128.851562 C 92.058594 139.792969 104.636719 144.210938 112.414062 139.714844 C 120.449219 135.070312 123.066406 121.007812 119.671875 103.90625 C 119.414062 102.597656 119.109375 101.265625 118.777344 99.910156 C 119.722656 99.628906 120.65625 99.335938 121.5625 99.039062 C 138.738281 93.351562 149.910156 84.167969 149.910156 74.773438 C 149.910156 65.761719 139.453125 57.046875 123.269531 51.484375 Z M 119.550781 92.972656 C 118.730469 93.242188 117.886719 93.503906 117.03125 93.753906 C 115.136719 87.765625 112.578125 81.386719 109.441406 74.800781 C 112.433594 68.371094 114.890625 62.078125 116.734375 56.125 C 118.265625 56.566406 119.753906 57.035156 121.1875 57.527344 C 135.050781 62.292969 143.507812 69.34375 143.507812 74.773438 C 143.507812 80.550781 134.378906 88.0625 119.550781 92.972656 Z M 113.390625 105.144531 C 114.894531 112.707031 115.105469 119.546875 114.113281 124.894531 C 113.222656 129.699219 111.425781 132.902344 109.207031 134.183594 C 104.484375 136.910156 94.390625 133.363281 83.503906 124.007812 C 82.25 122.929688 80.992188 121.785156 79.734375 120.574219 C 83.953125 115.964844 88.175781 110.605469 92.292969 104.648438 C 99.535156 104.011719 106.375 102.960938 112.585938 101.527344 C 112.890625 102.761719 113.15625 103.964844 113.390625 105.144531 Z M 51.167969 133.707031 C 46.554688 135.339844 42.882812 135.386719 40.660156 134.105469 C 35.933594 131.382812 33.96875 120.875 36.648438 106.78125 C 36.957031 105.167969 37.324219 103.507812 37.742188 101.816406 C 43.878906 103.171875 50.671875 104.148438 57.933594 104.730469 C 62.082031 110.558594 66.421875 115.910156 70.792969 120.597656 C 69.839844 121.523438 68.886719 122.398438 67.9375 123.222656 C 62.125 128.300781 56.300781 131.902344 51.167969 133.707031 Z M 29.558594 92.9375 C 22.25 90.441406 16.21875 87.203125 12.082031 83.660156 C 8.367188 80.488281 6.492188 77.332031 6.492188 74.773438 C 6.492188 69.324219 14.625 62.375 28.191406 57.648438 C 29.835938 57.078125 31.558594 56.535156 33.347656 56.03125 C 35.222656 62.121094 37.679688 68.488281 40.648438 74.921875 C 37.640625 81.457031 35.148438 87.929688 33.253906 94.09375 C 31.980469 93.726562 30.746094 93.339844 29.558594 92.9375 Z M 36.800781 43.6875 C 33.984375 29.320312 35.855469 18.480469 40.5625 15.757812 C 45.574219 12.859375 56.65625 16.992188 68.335938 27.351562 C 69.085938 28.011719 69.835938 28.707031 70.589844 29.421875 C 66.234375 34.089844 61.933594 39.40625 57.824219 45.195312 C 50.777344 45.847656 44.03125 46.894531 37.832031 48.300781 C 37.441406 46.734375 37.097656 45.195312 36.800781 43.6875 Z M 101.425781 59.625 C 99.945312 57.070312 98.421875 54.570312 96.871094 52.144531 C 101.652344 52.746094 106.230469 53.546875 110.53125 54.527344 C 109.242188 58.660156 107.632812 62.980469 105.738281 67.414062 C 104.378906 64.835938 102.941406 62.238281 101.425781 59.625 Z M 75.070312 33.992188 C 78.027344 37.183594 80.980469 40.75 83.890625 44.621094 C 80.957031 44.480469 77.992188 44.410156 75 44.410156 C 72.039062 44.410156 69.09375 44.480469 66.179688 44.617188 C 69.089844 40.78125 72.074219 37.222656 75.070312 33.992188 Z M 48.546875 59.671875 C 47.066406 62.234375 45.65625 64.816406 44.320312 67.40625 C 42.457031 62.992188 40.859375 58.652344 39.558594 54.460938 C 43.832031 53.503906 48.390625 52.722656 53.140625 52.132812 C 51.566406 54.582031 50.035156 57.097656 48.546875 59.667969 Z M 53.277344 97.863281 C 48.371094 97.320312 43.742188 96.578125 39.46875 95.648438 C 40.792969 91.382812 42.421875 86.953125 44.328125 82.441406 C 45.667969 85.027344 47.082031 87.613281 48.574219 90.183594 C 50.09375 92.800781 51.664062 95.363281 53.277344 97.863281 Z M 75.246094 116 C 72.214844 112.730469 69.1875 109.113281 66.234375 105.226562 C 69.101562 105.339844 72.027344 105.398438 75 105.398438 C 78.054688 105.398438 81.074219 105.328125 84.042969 105.199219 C 81.128906 109.15625 78.179688 112.777344 75.246094 116 Z M 105.796875 82.210938 C 107.796875 86.769531 109.488281 91.175781 110.828125 95.375 C 106.488281 96.363281 101.792969 97.15625 96.855469 97.753906 C 98.410156 95.292969 99.945312 92.75 101.453125 90.136719 C 102.980469 87.496094 104.425781 84.847656 105.796875 82.210938 Z M 95.90625 86.945312 C 93.566406 91.003906 91.160156 94.871094 88.71875 98.523438 C 84.277344 98.839844 79.683594 99.003906 75 99.003906 C 70.335938 99.003906 65.800781 98.863281 61.433594 98.578125 C 58.894531 94.878906 56.441406 90.996094 54.113281 86.980469 C 51.792969 82.976562 49.65625 78.9375 47.71875 74.921875 C 49.65625 70.902344 51.785156 66.859375 54.09375 62.863281 C 56.40625 58.855469 58.84375 54.992188 61.359375 51.3125 C 65.8125 50.976562 70.382812 50.800781 75 50.800781 C 79.640625 50.800781 84.210938 50.980469 88.667969 51.316406 C 91.148438 54.96875 93.566406 58.820312 95.886719 62.828125 C 98.234375 66.882812 100.394531 70.898438 102.34375 74.835938 C 100.398438 78.839844 98.246094 82.894531 95.90625 86.945312 Z M 109.109375 15.566406 C 114.128906 18.457031 116.078125 30.109375 112.925781 45.390625 C 112.726562 46.363281 112.496094 47.355469 112.25 48.363281 C 106.035156 46.929688 99.289062 45.863281 92.222656 45.203125 C 88.105469 39.347656 83.835938 34.027344 79.554688 29.417969 C 80.707031 28.3125 81.859375 27.257812 83 26.261719 C 94.0625 16.648438 104.402344 12.855469 109.109375 15.566406 Z M 75 61.410156 C 82.386719 61.410156 88.378906 67.386719 88.378906 74.769531 C 88.378906 82.144531 82.386719 88.128906 75 88.128906 C 67.613281 88.128906 61.621094 82.144531 61.621094 74.769531 C 61.621094 67.386719 67.613281 61.410156 75 61.410156 Z M 75 61.410156 " fill-opacity="1" fill-rule="nonzero"/></svg>