<svg xmlns="http://www.w3.org/2000/svg" xmlns:xlink="http://www.w3.org/1999/xlink" width="200" zoomAndPan="magnify" viewBox="0 0 150 149.999998" height="200" preserveAspectRatio="xMidYMid meet" version="1.0"><defs><clipPath id="c5790f40d0"><path d="M 0 22.5 L 150 22.5 L 150 135 L 0 135 Z M 0 22.5 " clip-rule="nonzero"/></clipPath></defs><rect x="-15" width="180" fill="#ffffff" y="-15" height="179.999997" fill-opacity="1"/><rect x="-15" width="180" fill="#ffffff" y="-15" height="179.999997" fill-opacity="1"/><g clip-path="url(#c5790f40d0)"><path fill="#242424" d="M 149.777344 92.707031 C 149.03125 85.5625 141.800781 22.832031 117.042969 22.832031 C 108.316406 22.5 99.675781 24.828125 92.28125 29.480469 C 87.128906 32.886719 81.148438 34.628906 75 34.546875 C 68.851562 34.628906 62.871094 32.886719 57.71875 29.480469 C 50.324219 24.828125 41.683594 22.582031 32.957031 22.832031 C 8.113281 22.832031 0.96875 85.5625 0.222656 92.707031 C 0.222656 92.792969 0.222656 92.875 0.222656 92.957031 L 0.222656 116.96875 C 0.222656 126.941406 8.28125 135 18.25 135 L 18.5 135 C 24.316406 134.917969 29.800781 132.175781 33.207031 127.4375 C 36.945312 122.453125 47.332031 113.980469 75 113.980469 C 102.667969 113.980469 113.054688 122.371094 116.792969 127.4375 C 120.199219 132.175781 125.683594 135 131.5 135 L 131.75 135 C 141.71875 135 149.777344 126.941406 149.777344 116.96875 L 149.777344 92.957031 C 149.777344 92.875 149.777344 92.792969 149.777344 92.707031 Z M 145.125 117.054688 C 145.125 124.449219 139.144531 130.347656 131.75 130.429688 L 131.5 130.429688 C 127.179688 130.347656 123.109375 128.269531 120.53125 124.695312 C 115.296875 117.71875 103.167969 109.410156 75 109.410156 C 46.832031 109.410156 34.703125 117.71875 29.46875 124.695312 C 26.976562 128.269531 22.90625 130.347656 18.5 130.429688 L 18.25 130.429688 C 10.855469 130.429688 4.957031 124.449219 4.875 117.054688 L 4.875 93.125 C 6.785156 74.761719 15.507812 27.566406 32.957031 27.566406 C 40.933594 27.320312 48.746094 29.394531 55.472656 33.632812 C 61.289062 37.371094 68.105469 39.367188 75 39.285156 C 81.894531 39.367188 88.710938 37.371094 94.527344 33.632812 C 101.253906 29.394531 109.066406 27.320312 117.042969 27.566406 C 134.40625 27.566406 143.132812 74.761719 145.125 93.125 Z M 145.125 117.054688 " fill-opacity="1" fill-rule="nonzero"/></g><path fill="#242424" d="M 60.957031 62.546875 L 49.324219 62.546875 L 49.324219 50.914062 C 49.324219 49.585938 48.246094 48.589844 47 48.589844 L 32.957031 48.589844 C 31.628906 48.589844 30.632812 49.667969 30.632812 50.914062 L 30.632812 62.632812 L 18.917969 62.632812 C 17.585938 62.632812 16.589844 63.710938 16.589844 64.957031 L 16.589844 79 C 16.589844 80.328125 17.667969 81.324219 18.917969 81.324219 L 30.632812 81.324219 L 30.632812 93.039062 C 30.632812 94.371094 31.710938 95.367188 32.957031 95.367188 L 47 95.367188 C 48.328125 95.367188 49.324219 94.289062 49.324219 93.039062 L 49.324219 88.386719 C 49.324219 87.058594 48.246094 86.0625 47 86.0625 C 45.753906 86.0625 44.671875 87.140625 44.671875 88.386719 L 44.671875 90.714844 L 35.285156 90.714844 L 35.285156 78.917969 C 35.285156 77.585938 34.203125 76.589844 32.957031 76.589844 L 21.242188 76.589844 L 21.242188 67.285156 L 32.957031 67.285156 C 34.289062 67.285156 35.285156 66.203125 35.285156 64.957031 L 35.285156 53.242188 L 44.671875 53.242188 L 44.671875 64.957031 C 44.671875 66.285156 45.753906 67.285156 47 67.285156 L 58.714844 67.285156 L 58.714844 76.671875 L 46.917969 76.671875 C 45.585938 76.671875 44.589844 77.753906 44.589844 79 C 44.589844 80.246094 45.671875 81.324219 46.917969 81.324219 L 60.957031 81.324219 C 62.289062 81.324219 63.285156 80.246094 63.285156 79 L 63.285156 64.957031 C 63.285156 63.628906 62.289062 62.546875 60.957031 62.546875 Z M 60.957031 62.546875 " fill-opacity="1" fill-rule="nonzero"/><path fill="#242424" d="M 107.738281 64.957031 C 112.886719 64.957031 117.125 60.804688 117.125 55.570312 C 117.125 50.335938 112.972656 46.179688 107.738281 46.179688 C 102.585938 46.179688 98.347656 50.335938 98.347656 55.570312 C 98.347656 60.804688 102.585938 64.957031 107.738281 64.957031 Z M 107.738281 50.914062 C 110.3125 50.914062 112.390625 52.992188 112.390625 55.570312 C 112.390625 58.144531 110.3125 60.222656 107.738281 60.222656 C 105.160156 60.222656 103.082031 58.144531 103.082031 55.570312 C 103.082031 52.992188 105.160156 50.914062 107.738281 50.914062 Z M 107.738281 50.914062 " fill-opacity="1" fill-rule="nonzero"/><path fill="#242424" d="M 107.738281 78.917969 C 102.585938 78.917969 98.347656 83.070312 98.347656 88.304688 C 98.347656 93.457031 102.5 97.695312 107.738281 97.695312 C 112.886719 97.695312 117.125 93.539062 117.125 88.304688 C 117.042969 83.152344 112.886719 78.917969 107.738281 78.917969 Z M 107.738281 92.957031 C 105.160156 92.957031 103.082031 90.878906 103.082031 88.304688 C 103.082031 85.730469 105.160156 83.652344 107.738281 83.652344 C 110.3125 83.652344 112.390625 85.730469 112.390625 88.304688 C 112.390625 90.878906 110.3125 92.957031 107.738281 92.957031 Z M 107.738281 92.957031 " fill-opacity="1" fill-rule="nonzero"/><path fill="#242424" d="M 114.714844 71.9375 C 114.714844 77.089844 118.871094 81.324219 124.105469 81.324219 C 129.257812 81.324219 133.492188 77.171875 133.492188 71.9375 C 133.492188 66.703125 129.339844 62.546875 124.105469 62.546875 C 118.871094 62.546875 114.714844 66.785156 114.714844 71.9375 Z M 128.757812 71.9375 C 128.757812 74.511719 126.679688 76.589844 124.105469 76.589844 C 121.527344 76.589844 119.453125 74.511719 119.453125 71.9375 C 119.453125 69.359375 121.527344 67.285156 124.105469 67.285156 C 126.679688 67.285156 128.757812 69.359375 128.757812 71.9375 Z M 128.757812 71.9375 " fill-opacity="1" fill-rule="nonzero"/><path fill="#242424" d="M 91.367188 62.546875 C 86.214844 62.546875 81.980469 66.703125 81.980469 71.9375 C 81.980469 77.171875 86.132812 81.324219 91.367188 81.324219 C 96.601562 81.324219 100.757812 77.171875 100.757812 71.9375 C 100.757812 66.703125 96.519531 62.546875 91.367188 62.546875 Z M 91.367188 76.589844 C 88.792969 76.589844 86.714844 74.511719 86.714844 71.9375 C 86.714844 69.359375 88.792969 67.285156 91.367188 67.285156 C 93.945312 67.285156 96.019531 69.359375 96.019531 71.9375 C 96.019531 74.511719 93.945312 76.589844 91.367188 76.589844 Z M 91.367188 76.589844 " fill-opacity="1" fill-rule="nonzero"/></svg>